<svg width="42" height="44" viewBox="0 0 42 44" fill="none" xmlns="http://www.w3.org/2000/svg">
<path d="M40.7294 27.6705C38.8298 24.3803 34.6295 23.2543 31.3387 25.1543L27.8481 27.1696V19.7071C27.8481 18.7846 27.543 17.8691 26.9888 17.1291L22.6922 11.4005V8.96105C23.6923 8.6063 24.4108 7.65119 24.4108 6.53082V2.57795C24.4107 1.15646 23.2542 0 21.8327 0H6.36473C4.94324 0 3.78669 1.15646 3.78669 2.57795V6.53091C3.78669 7.6511 4.50522 8.60638 5.50536 8.96113V11.4006L1.2084 17.1296C0.654443 17.8692 0.349365 18.7846 0.349365 19.7071V36.3498C0.349365 38.719 2.27686 40.6464 4.64598 40.6464H18.4563C20.3831 43.8762 24.5378 44.9571 27.7946 43.0766L38.2133 37.0612C41.4751 35.1777 42.6386 30.9787 40.7294 27.6705ZM5.50536 2.57795C5.50536 2.10409 5.89087 1.71858 6.36465 1.71858H21.8326C22.3065 1.71858 22.692 2.10409 22.692 2.57795V6.53091C22.692 7.00477 22.3065 7.3902 21.8326 7.3902H6.36473C5.89087 7.3902 5.50544 7.00468 5.50544 6.53091V2.57795H5.50536ZM2.58374 18.1602L7.05215 12.2025C7.16369 12.0539 7.22402 11.8729 7.22402 11.6869V9.10895H20.9733V10.8276H13.2394C12.7648 10.8276 12.38 11.2124 12.38 11.687C12.38 12.1615 12.7648 12.5464 13.2394 12.5464H21.403L25.6134 18.16C25.8885 18.5274 26.0595 18.9669 26.1111 19.421H2.08633C2.1379 18.9668 2.30883 18.5273 2.58374 18.1602ZM4.64607 38.9277C3.22458 38.9277 2.06811 37.7713 2.06811 36.3498V35.4819H17.6808C17.4083 36.5961 17.4101 37.7861 17.7221 38.9278H4.64607V38.9277ZM18.3548 33.7717H2.06803V21.1395H26.1293V28.1617L20.9199 31.1697C19.8337 31.7971 18.9558 32.6903 18.3548 33.7717ZM26.9354 41.5882C24.4693 43.0122 21.3179 42.17 19.8929 39.7022C18.4611 37.2105 19.3288 34.0734 21.7794 32.658L26.4439 29.9649L31.5998 38.8951L26.9354 41.5882ZM37.354 35.5729L33.0883 38.0358L27.9322 29.1054L32.198 26.6428C34.6658 25.2181 37.816 26.0618 39.241 28.5297C40.6723 31.01 39.8019 34.1593 37.354 35.5729Z" fill="#0E69C2"/>
</svg>
