<svg width="32" height="44" viewBox="0 0 32 44" fill="none" xmlns="http://www.w3.org/2000/svg">
<path d="M31.9999 36.4179C31.9067 30.4381 26.0788 28.6714 21.8233 27.3813C21.3268 27.2309 20.8493 27.0861 20.4019 26.9415V24.4747C21.2719 23.9026 22.0342 23.1663 22.6491 22.3076H25.2413C26.5098 22.3076 27.5419 21.2248 27.5419 19.8941V16.9726C27.6957 16.5965 27.7811 16.1826 27.7811 15.748V14.8394C27.7811 14.4052 27.6957 13.9916 27.5419 13.6158V12.1086C27.5419 5.43196 22.3642 0 16 0C9.63699 0 4.4604 5.43196 4.4604 12.1087V13.5728C4.4604 13.5843 4.46162 13.5954 4.46203 13.6068C4.3059 13.9851 4.2189 14.4017 4.2189 14.8395V15.7481C4.2189 17.4657 5.5499 18.8632 7.18586 18.8632H7.86283C8.33172 21.222 9.71211 23.2338 11.5981 24.4742V26.9415C11.1506 27.0861 10.6732 27.2308 10.1767 27.3813C5.92123 28.6714 0.0933037 30.4381 8.18723e-05 36.4179C-4.50024e-08 36.4226 0 36.4272 0 36.432V43.1406C0 43.6153 0.366826 44 0.819173 44H3.24786C3.7002 44 4.06703 43.6153 4.06703 43.1406C4.06703 42.666 3.7002 42.2812 3.24786 42.2812H1.63826V36.4391C1.67275 34.3528 2.58629 32.7888 4.51307 31.5174C5.78451 30.6783 7.33889 30.0806 8.87107 29.5805L10.8503 33.6259C11.0709 34.0768 11.6357 34.2301 12.0371 33.946L12.9196 33.3215L13.6772 36.3089L12.3791 42.2812H10.6038C10.1514 42.2812 9.78461 42.6659 9.78461 43.1405C9.78461 43.6152 10.1514 43.9999 10.6038 43.9999H31.1808C31.6332 43.9999 32 43.6152 32 43.1405V36.4319C32 36.4272 32 36.4226 31.9999 36.4179ZM21.3685 29.0325C21.4225 29.0488 21.4774 29.0655 21.5318 29.0821L20.1157 31.9794L17.4656 30.1046L19.711 28.5157C20.2327 28.6879 20.7874 28.8563 21.3685 29.0325ZM16.0006 31.1413L17.6432 32.3033L16.8493 35.4337H15.1507L14.3571 32.3043L16.0006 31.1413ZM16.0004 29.0682L13.2364 27.1129V25.3037C14.1015 25.6247 15.0313 25.8008 15.9999 25.8008C16.9684 25.8008 17.8984 25.6253 18.7635 25.3043V27.1129L16.0004 29.0682ZM22.6737 12.2659C22.6625 12.2584 22.6514 12.251 22.6401 12.2435C20.9593 11.121 19.5075 10.1515 17.2329 10.8343C17.2117 10.8406 17.1908 10.8478 17.1702 10.8559C16.6879 11.0459 16.2494 11.2231 15.8253 11.3943C13.2348 12.4404 11.8204 13.0118 9.3262 12.9382V12.25C9.3262 8.38934 12.32 5.24848 15.9999 5.24848C19.6798 5.24848 22.6736 8.38934 22.6736 12.25V12.2659H22.6737ZM25.9036 19.8941C25.9036 20.2772 25.6065 20.5888 25.2413 20.5888H23.6089C23.8394 20.0406 24.018 19.4632 24.1373 18.8631H24.8142C25.1988 18.8631 25.5661 18.7851 25.9036 18.6446V19.8941H25.9036ZM26.1428 15.748C26.1428 16.5179 25.5468 17.1443 24.8141 17.1443H24.3113C24.3115 17.123 24.3121 13.4455 24.3121 13.4455H24.8142C25.5468 13.4455 26.1428 14.0708 26.1428 14.8394V15.748H26.1428ZM7.18586 17.1444C6.45328 17.1444 5.85725 16.518 5.85725 15.7481V14.8395C5.85725 14.0709 6.4532 13.4456 7.18586 13.4456H7.68794C7.68794 13.4456 7.68859 17.1231 7.68875 17.1444H7.18586ZM7.70325 11.7267H7.18578C6.80282 11.7267 6.43706 11.8041 6.10071 11.9433C6.18533 6.29031 10.5931 1.71876 16 1.71876C21.4084 1.71876 25.8175 6.29082 25.9015 11.9442C25.5646 11.8044 25.1979 11.7267 24.8141 11.7267H24.2967C24.0378 7.16103 20.4158 3.52972 16 3.52972C11.5842 3.52972 7.96211 7.16111 7.70325 11.7267ZM9.37551 17.9166C9.37543 17.9157 9.37527 17.9149 9.37519 17.914C9.34414 17.6405 9.32628 17.3627 9.32628 17.0806V14.6569C12.1289 14.7285 13.8008 14.0538 16.4138 12.9984C16.8254 12.8322 17.2508 12.6604 17.7142 12.4777C19.2616 12.0245 20.152 12.6193 21.7603 13.6934C22.0394 13.8798 22.3456 14.0841 22.6737 14.2939V17.0806C22.6737 18.3586 22.3441 19.5565 21.7717 20.5889H16C15.5477 20.5889 15.1808 20.9736 15.1808 21.4483C15.1808 21.9229 15.5477 22.3077 16 22.3077H20.4337C19.2539 23.4103 17.7006 24.0821 16 24.0821C12.5899 24.082 9.77076 21.3843 9.37551 17.9166ZM11.8863 31.9794L10.4686 29.0819C10.5228 29.0655 10.5776 29.0488 10.6315 29.0325C11.2126 28.8563 11.7673 28.6879 12.2891 28.5156L14.5355 30.1048L11.8863 31.9794ZM14.0595 42.2812L15.1744 37.1525H16.8259L17.9424 42.2812H14.0595ZM30.3617 42.2812H19.623L18.3228 36.3088L19.0807 33.3202L19.9654 33.946C20.3669 34.2301 20.9317 34.0768 21.1523 33.6257L23.1293 29.5807C24.6614 30.0807 26.2157 30.6784 27.487 31.5174C29.4137 32.7887 30.3273 34.3528 30.3618 36.4391V42.2812H30.3617Z" fill="#0E69C2"/>
</svg>
