<svg width="38" height="36" viewBox="0 0 38 36" fill="none" xmlns="http://www.w3.org/2000/svg">
<path d="M1.01062 35.1796H36.9896C37.0686 35.1797 37.1468 35.1641 37.2198 35.1339C37.2928 35.1037 37.3592 35.0594 37.415 35.0035C37.4709 34.9477 37.5152 34.8813 37.5454 34.8083C37.5756 34.7353 37.5912 34.6571 37.5911 34.5781V31.8281C37.5911 31.6685 37.5277 31.5155 37.4149 31.4027C37.3021 31.2899 37.1491 31.2265 36.9896 31.2265H36.2161V13.039H36.9896C37.0686 13.0391 37.1468 13.0235 37.2198 12.9933C37.2928 12.9631 37.3592 12.9188 37.415 12.8629C37.4709 12.8071 37.5152 12.7407 37.5454 12.6677C37.5756 12.5947 37.5912 12.5165 37.5911 12.4375V10.0312C37.5911 9.87167 37.5277 9.71866 37.4149 9.60585C37.3021 9.49303 37.1491 9.42966 36.9896 9.42966H31.0485V4.42981H31.5731C31.7326 4.42972 31.8856 4.36631 31.9984 4.25352C32.1111 4.14072 32.1746 3.98776 32.1746 3.82825V1.422C32.1746 1.26245 32.1113 1.10944 31.9985 0.996628C31.8856 0.883814 31.7326 0.820435 31.5731 0.820435H25.1979C25.0384 0.820435 24.8853 0.883814 24.7725 0.996628C24.6597 1.10944 24.5963 1.26245 24.5963 1.422V3.82825C24.5964 3.98776 24.6598 4.14072 24.7726 4.25352C24.8854 4.36631 25.0384 4.42972 25.1979 4.42981H25.7204V9.42966H21.6641V4.42981H22.1877C22.3472 4.42972 22.5002 4.36631 22.6129 4.25352C22.7257 4.14072 22.7892 3.98776 22.7892 3.82825V1.422C22.7892 1.26245 22.7259 1.10944 22.613 0.996628C22.5002 0.883814 22.3472 0.820435 22.1877 0.820435H15.8125C15.6529 0.820435 15.4999 0.883814 15.3871 0.996628C15.2743 1.10944 15.2109 1.26245 15.2109 1.422V3.82825C15.211 3.98776 15.2744 4.14072 15.3872 4.25352C15.5 4.36631 15.653 4.42972 15.8125 4.42981H16.336V9.42966H12.2798V4.42981H12.8023C12.9618 4.42972 13.1147 4.36631 13.2275 4.25352C13.3403 4.14072 13.4037 3.98776 13.4038 3.82825V1.422C13.4038 1.26245 13.3405 1.10944 13.2276 0.996628C13.1148 0.883814 12.9618 0.820435 12.8023 0.820435H6.42709C6.26754 0.820435 6.11453 0.883814 6.00172 0.996628C5.8889 1.10944 5.82553 1.26245 5.82553 1.422V3.82825C5.82562 3.98776 5.88902 4.14072 6.00182 4.25352C6.11461 4.36631 6.26757 4.42972 6.42709 4.42981H6.95165V9.42966H1.01062C0.851076 9.42966 0.698066 9.49303 0.585251 9.60585C0.472437 9.71866 0.409058 9.87167 0.409058 10.0312V12.4375C0.409013 12.5165 0.424542 12.5947 0.454757 12.6677C0.484972 12.7407 0.529281 12.8071 0.58515 12.8629C0.64102 12.9188 0.707353 12.9631 0.780359 12.9933C0.853364 13.0235 0.931609 13.0391 1.01062 13.039H1.78406V31.2265H1.01062C0.851076 31.2265 0.698066 31.2899 0.585251 31.4027C0.472437 31.5155 0.409058 31.6685 0.409058 31.8281V34.5781C0.409013 34.6571 0.424542 34.7353 0.454757 34.8083C0.484972 34.8813 0.529281 34.9477 0.58515 35.0035C0.64102 35.0594 0.707353 35.1037 0.780359 35.1339C0.853364 35.1641 0.931609 35.1797 1.01062 35.1796ZM35.013 31.2265H33.8099V13.039H35.013V31.2265ZM5.39343 31.2265V13.039H6.95165V26.5766C6.95165 26.9264 7.02056 27.2729 7.15444 27.5961C7.28832 27.9193 7.48456 28.213 7.73194 28.4604C7.97932 28.7078 8.273 28.904 8.59622 29.0379C8.91944 29.1718 9.26586 29.2407 9.61571 29.2407C9.96556 29.2407 10.312 29.1718 10.6352 29.0379C10.9584 28.904 11.2521 28.7078 11.4995 28.4604C11.7469 28.213 11.9431 27.9193 12.077 27.5961C12.2109 27.2729 12.2798 26.9264 12.2798 26.5766V13.039H16.336V26.5766C16.336 27.2831 16.6167 27.9608 17.1163 28.4604C17.6159 28.96 18.2935 29.2407 19.0001 29.2407C19.7066 29.2407 20.3843 28.96 20.8839 28.4604C21.3835 27.9608 21.6641 27.2831 21.6641 26.5766V13.039H25.7204V26.5766C25.7204 27.2831 26.0011 27.9608 26.5007 28.4604C27.0003 28.96 27.6779 29.2407 28.3845 29.2407C29.091 29.2407 29.7686 28.96 30.2682 28.4604C30.7678 27.9608 31.0485 27.2831 31.0485 26.5766V13.039H32.6067V31.2265H5.39343ZM8.15478 16.8375H11.0766V26.5766C11.0766 26.9641 10.9227 27.3357 10.6488 27.6096C10.3748 27.8836 10.0032 28.0375 9.61571 28.0375C9.22825 28.0375 8.85665 27.8836 8.58267 27.6096C8.3087 27.3357 8.15478 26.9641 8.15478 26.5766V16.8375ZM11.0766 15.6343H8.15478V13.039H11.0766V15.6343ZM17.5391 16.8375H20.461V26.5766C20.461 26.9641 20.3071 27.3357 20.0331 27.6096C19.7591 27.8836 19.3876 28.0375 19.0001 28.0375C18.6126 28.0375 18.241 27.8836 17.967 27.6096C17.6931 27.3357 17.5391 26.9641 17.5391 26.5766V16.8375ZM20.461 15.6343H17.5391V13.039H20.461V15.6343ZM26.9235 16.8375H29.8454V26.5766C29.8454 26.9641 29.6915 27.3357 29.4175 27.6096C29.1435 27.8836 28.7719 28.0375 28.3845 28.0375C27.997 28.0375 27.6254 27.8836 27.3514 27.6096C27.0774 27.3357 26.9235 26.9641 26.9235 26.5766V16.8375ZM29.8454 15.6343H26.9235V13.039H29.8454V15.6343ZM25.7995 2.02356H30.9715V3.22669C30.9715 3.22669 28.5594 3.22669 25.7995 3.22669V2.02356ZM26.9235 4.42981H29.8454V9.42966H26.9235V4.42981ZM16.4141 2.02356H21.5861V3.22669C21.7539 3.22669 19.1747 3.22669 16.4141 3.22669V2.02356ZM17.5391 4.42981H20.461V9.42966H17.5391V4.42981ZM7.02865 2.02356H12.2007V3.22669C12.0632 3.22669 6.68559 3.22669 7.02865 3.22669V2.02356ZM8.15478 4.42981H11.0766V9.42966H8.15478V4.42981ZM1.61218 10.6328H36.388V11.8359H1.61218V10.6328ZM2.98718 13.039H4.19031V31.2265H2.98718V13.039ZM1.61218 32.4296H36.388V33.9765H1.61218V32.4296Z" fill="#0E69C2"/>
</svg>
