<svg width="360" height="360" viewBox="0 0 360 360" fill="none" xmlns="http://www.w3.org/2000/svg">
<path d="M360 275.328H0V275.508H360V275.328Z" fill="#EBEBEB"/>
<path d="M304.243 280.231H285.545V280.411H304.243V280.231Z" fill="#EBEBEB"/>
<path d="M227.275 281.528H221.019V281.708H227.275V281.528Z" fill="#EBEBEB"/>
<path d="M323.928 286.913H310.111V287.093H323.928V286.913Z" fill="#EBEBEB"/>
<path d="M49.4712 281.441H37.7712V281.621H49.4712V281.441Z" fill="#EBEBEB"/>
<path d="M79.8408 281.441H53.3232V281.621H79.8408V281.441Z" fill="#EBEBEB"/>
<path d="M212.645 284.479H145.195V284.659H212.645V284.479Z" fill="#EBEBEB"/>
<path d="M194.155 275.328H212.162V160.56H194.155V275.328Z" fill="#4B9EEF"/>
<path d="M197.582 275.328H194.162V259.87H201.168L197.582 275.328Z" fill="#3892EA"/>
<path d="M296.906 275.328H314.914V160.56H296.906V275.328Z" fill="#4B9EEF"/>
<path d="M194.155 265.846H299.895V160.56H194.155V265.846Z" fill="#60ABF4"/>
<path d="M296.381 246.96H265.039C264.93 246.96 264.825 246.917 264.746 246.84C264.668 246.764 264.623 246.659 264.622 246.55V165.6C264.622 165.489 264.666 165.383 264.744 165.305C264.822 165.227 264.928 165.183 265.039 165.183H270.799C270.867 165.183 270.933 165.2 270.992 165.233C271.051 165.266 271.101 165.313 271.138 165.37C271.87 166.524 272.822 167.525 273.938 168.315C274.999 169.081 276.273 169.499 277.582 169.51H283.781C286.178 169.51 288.461 168.07 290.218 165.37C290.256 165.313 290.307 165.266 290.367 165.234C290.428 165.201 290.495 165.184 290.563 165.183H296.323C296.378 165.183 296.432 165.193 296.482 165.215C296.532 165.236 296.578 165.266 296.616 165.305C296.654 165.344 296.684 165.39 296.704 165.441C296.725 165.492 296.734 165.546 296.734 165.6V246.521C296.742 246.625 296.71 246.729 296.644 246.811C296.579 246.892 296.484 246.946 296.381 246.96ZM265.421 246.132H295.942V166.032H290.786C288.886 168.826 286.402 170.352 283.781 170.352H277.582C276.106 170.338 274.671 169.87 273.47 169.013C272.334 168.204 271.357 167.191 270.59 166.025H265.435L265.421 246.132Z" fill="#5CA8F1"/>
<path d="M262.699 246.96H231.358C231.248 246.96 231.143 246.917 231.065 246.84C230.987 246.764 230.942 246.659 230.94 246.55V165.6C230.94 165.489 230.984 165.383 231.062 165.305C231.141 165.227 231.247 165.183 231.358 165.183H236.83C236.898 165.184 236.965 165.201 237.025 165.234C237.086 165.266 237.137 165.313 237.175 165.37C237.904 166.526 238.853 167.526 239.969 168.315C241.031 169.079 242.303 169.497 243.612 169.51H249.84C252.23 169.51 254.52 168.07 256.277 165.37C256.313 165.313 256.363 165.266 256.422 165.233C256.481 165.2 256.548 165.183 256.615 165.183H262.728C262.783 165.183 262.837 165.193 262.887 165.215C262.937 165.236 262.983 165.266 263.021 165.305C263.059 165.344 263.089 165.39 263.109 165.441C263.13 165.492 263.139 165.546 263.138 165.6V246.521C263.143 246.58 263.134 246.639 263.114 246.694C263.093 246.749 263.061 246.799 263.019 246.841C262.978 246.883 262.928 246.915 262.872 246.936C262.817 246.956 262.758 246.965 262.699 246.96ZM231.739 246.132H262.26V166.032H256.781C254.88 168.826 252.403 170.352 249.782 170.352H243.583C242.108 170.338 240.673 169.87 239.472 169.013C238.335 168.204 237.359 167.191 236.592 166.025H231.768L231.739 246.132Z" fill="#5CA8F1"/>
<path d="M229.017 246.96H197.669C197.56 246.958 197.457 246.915 197.381 246.838C197.304 246.761 197.26 246.658 197.258 246.55V165.6C197.258 165.491 197.301 165.386 197.378 165.307C197.455 165.229 197.559 165.185 197.669 165.183H203.148C203.216 165.184 203.283 165.201 203.344 165.234C203.404 165.266 203.455 165.313 203.494 165.37C204.222 166.526 205.171 167.526 206.287 168.315C207.349 169.079 208.622 169.497 209.93 169.51H216.129C218.527 169.51 220.809 168.07 222.573 165.37C222.61 165.313 222.66 165.266 222.719 165.233C222.778 165.2 222.844 165.183 222.912 165.183H229.017C229.072 165.183 229.126 165.193 229.176 165.215C229.226 165.236 229.272 165.266 229.31 165.305C229.348 165.344 229.379 165.39 229.399 165.441C229.419 165.492 229.429 165.546 229.428 165.6V246.521C229.432 246.577 229.424 246.634 229.405 246.687C229.386 246.74 229.357 246.789 229.318 246.83C229.28 246.871 229.233 246.904 229.181 246.926C229.13 246.949 229.074 246.96 229.017 246.96ZM198.057 246.132H228.578V166.032H223.106C221.205 168.826 218.729 170.352 216.101 170.352H209.901C208.426 170.338 206.991 169.87 205.79 169.013C204.653 168.204 203.677 167.191 202.91 166.025H198.072L198.057 246.132Z" fill="#5CA8F1"/>
<path d="M296.474 275.328H299.894V259.87H292.889L296.474 275.328Z" fill="#3892EA"/>
<path d="M282.463 135.194H266.94C265.007 135.194 263.441 136.761 263.441 138.694V157.061C263.441 158.993 265.007 160.56 266.94 160.56H282.463C284.396 160.56 285.962 158.993 285.962 157.061V138.694C285.962 136.761 284.396 135.194 282.463 135.194Z" fill="#EBEBEB"/>
<path d="M293.025 141.048H281.088C279.601 141.048 278.395 142.254 278.395 143.741V157.867C278.395 159.354 279.601 160.56 281.088 160.56H293.025C294.513 160.56 295.718 159.354 295.718 157.867V143.741C295.718 142.254 294.513 141.048 293.025 141.048Z" fill="#F5F5F5"/>
<path d="M203.162 154.202C203.162 154.202 203.717 160.56 225.007 160.56C246.298 160.56 246.845 154.202 246.845 154.202H203.162Z" fill="#F0F0F0"/>
<path d="M121.248 120.463L290.757 120.463V52.8261L121.248 52.8261V120.463Z" fill="#156EC5"/>
<path d="M109.361 120.463L288.691 120.463V52.8261L109.361 52.8261V120.463Z" fill="#187CDD"/>
<path d="M114.696 58.1543V115.128L283.363 115.128V58.1543L114.696 58.1543Z" fill="#348BE0"/>
<path d="M180 307.843C257.099 307.843 319.601 304.194 319.601 299.693C319.601 295.192 257.099 291.542 180 291.542C102.901 291.542 40.3992 295.192 40.3992 299.693C40.3992 304.194 102.901 307.843 180 307.843Z" fill="#0158AC"/>
<path d="M218.88 189.454H316.08C321.452 189.409 326.604 187.309 330.477 183.585C334.351 179.862 336.652 174.797 336.909 169.431L339.012 117.159C339.057 116.32 338.93 115.48 338.638 114.692C338.346 113.904 337.896 113.184 337.315 112.577C336.734 111.969 336.035 111.488 335.261 111.161C334.486 110.835 333.653 110.671 332.813 110.679H228.485C226.748 110.692 225.082 111.372 223.832 112.578C222.582 113.783 221.843 115.423 221.767 117.159L219.657 169.431C219.402 174.797 217.102 179.861 213.23 183.585C209.358 187.308 204.207 189.409 198.835 189.454H218.88Z" fill="#379AFB"/>
<path opacity="0.7" d="M218.88 189.454H316.08C321.452 189.409 326.604 187.309 330.477 183.585C334.351 179.862 336.652 174.797 336.909 169.431L339.012 117.159C339.057 116.32 338.93 115.48 338.638 114.692C338.346 113.904 337.896 113.184 337.315 112.577C336.734 111.969 336.035 111.488 335.261 111.161C334.486 110.835 333.653 110.671 332.813 110.679H228.485C226.748 110.692 225.082 111.372 223.832 112.578C222.582 113.783 221.843 115.423 221.767 117.159L219.657 169.431C219.402 174.797 217.102 179.861 213.23 183.585C209.358 187.308 204.207 189.409 198.835 189.454H218.88Z" fill="white"/>
<path opacity="0.6" d="M322.632 133.755H236.657C236.378 133.757 236.102 133.702 235.845 133.593C235.589 133.484 235.357 133.323 235.166 133.12C234.975 132.917 234.827 132.677 234.733 132.414C234.639 132.152 234.6 131.873 234.619 131.595L234.85 126C234.876 125.432 235.119 124.896 235.529 124.502C235.939 124.108 236.484 123.886 237.053 123.883H323.028C323.303 123.881 323.575 123.935 323.828 124.042C324.081 124.148 324.31 124.306 324.5 124.504C324.69 124.702 324.838 124.937 324.934 125.194C325.03 125.452 325.072 125.726 325.058 126L324.835 131.595C324.817 132.169 324.577 132.714 324.167 133.117C323.757 133.519 323.207 133.747 322.632 133.755Z" fill="white"/>
<path opacity="0.6" d="M322.783 144.317H235.663C235.462 144.323 235.261 144.288 235.074 144.212C234.887 144.136 234.719 144.021 234.579 143.876C234.439 143.731 234.331 143.558 234.263 143.368C234.194 143.179 234.166 142.977 234.18 142.776L234.266 140.659C234.286 140.246 234.464 139.856 234.763 139.57C235.061 139.283 235.458 139.122 235.872 139.118H322.992C323.19 139.118 323.386 139.158 323.567 139.237C323.749 139.315 323.912 139.431 324.047 139.575C324.183 139.72 324.286 139.891 324.353 140.077C324.419 140.264 324.446 140.462 324.432 140.659L324.353 142.776C324.331 143.183 324.158 143.567 323.868 143.852C323.577 144.137 323.19 144.303 322.783 144.317Z" fill="white"/>
<path opacity="0.6" d="M322.467 152.223H235.347C235.145 152.228 234.945 152.192 234.758 152.115C234.572 152.038 234.403 151.923 234.264 151.777C234.125 151.631 234.018 151.457 233.95 151.268C233.883 151.078 233.855 150.876 233.871 150.675L233.957 148.558C233.975 148.145 234.151 147.755 234.449 147.469C234.746 147.182 235.142 147.02 235.555 147.017H322.675C322.873 147.017 323.069 147.057 323.251 147.136C323.432 147.214 323.596 147.329 323.731 147.474C323.866 147.618 323.97 147.789 324.036 147.976C324.102 148.162 324.129 148.36 324.115 148.558L324.029 150.675C324.013 151.083 323.842 151.469 323.553 151.756C323.263 152.044 322.874 152.21 322.467 152.223Z" fill="white"/>
<path d="M299.628 91.8718C299.056 90.5708 298.354 89.3308 297.533 88.171L298.123 87.7534C298.973 88.9525 299.697 90.2361 300.283 91.5838L299.628 91.8718Z" fill="#379AFB"/>
<path d="M301.366 101.214L300.846 113.882L301.566 113.912L302.085 101.243L301.366 101.214Z" fill="#379AFB"/>
<path d="M296.806 169.431L299.556 101.232C299.684 98.637 299.28 96.0431 298.37 93.6095C297.46 91.1758 296.062 88.9536 294.263 87.079C292.464 85.2044 290.301 83.7168 287.907 82.7074C285.512 81.6981 282.937 81.1882 280.339 81.2089H163.145C165.743 81.1871 168.319 81.6963 170.714 82.7053C173.108 83.7143 175.272 85.2019 177.071 87.0767C178.87 88.9515 180.268 91.1742 181.177 93.6083C182.087 96.0424 182.49 98.6367 182.362 101.232L179.618 169.431C179.172 180.49 193.054 189.454 204.098 189.454H316.022C313.424 189.476 310.848 188.966 308.454 187.957C306.059 186.948 303.896 185.461 302.096 183.586C300.297 181.711 298.9 179.489 297.99 177.054C297.08 174.62 296.677 172.026 296.806 169.431Z" fill="#379AFB"/>
<path d="M275.53 234.648H124.97C124.128 234.655 123.293 234.49 122.517 234.164C121.74 233.838 121.039 233.357 120.454 232.751C119.869 232.144 119.414 231.425 119.116 230.638C118.818 229.85 118.684 229.01 118.721 228.168L122.969 122.768C123.059 121.028 123.809 119.389 125.067 118.185C126.325 116.98 127.995 116.302 129.737 116.288H280.296C281.138 116.281 281.973 116.446 282.749 116.772C283.526 117.098 284.228 117.579 284.813 118.185C285.397 118.792 285.852 119.51 286.15 120.298C286.448 121.086 286.583 121.926 286.546 122.768L282.305 228.168C282.211 229.908 281.459 231.546 280.2 232.75C278.941 233.954 277.271 234.633 275.53 234.648Z" fill="#D2E9FF"/>
<path d="M275.53 235.008H124.97C124.077 235.014 123.193 234.838 122.37 234.491C121.547 234.143 120.804 233.632 120.186 232.988C119.567 232.344 119.086 231.58 118.773 230.744C118.459 229.908 118.319 229.017 118.361 228.125L122.609 122.724C122.697 120.888 123.485 119.154 124.81 117.88C126.135 116.605 127.898 115.886 129.737 115.87H280.296C281.19 115.862 282.075 116.037 282.899 116.383C283.723 116.73 284.467 117.241 285.086 117.886C285.704 118.53 286.185 119.295 286.498 120.131C286.811 120.968 286.95 121.861 286.906 122.753L282.665 228.154C282.577 229.992 281.788 231.726 280.461 233.001C279.134 234.276 277.37 234.994 275.53 235.008ZM129.737 116.59C128.084 116.606 126.5 117.254 125.309 118.399C124.118 119.545 123.41 121.102 123.329 122.753L119.081 228.154C119.042 228.949 119.165 229.744 119.444 230.49C119.723 231.236 120.151 231.917 120.703 232.491C121.254 233.065 121.917 233.521 122.651 233.83C123.385 234.139 124.174 234.295 124.97 234.288H275.53C277.183 234.274 278.769 233.627 279.962 232.481C281.155 231.336 281.864 229.777 281.945 228.125L286.186 122.724C286.225 121.929 286.101 121.134 285.822 120.388C285.543 119.642 285.115 118.961 284.564 118.387C284.012 117.813 283.349 117.357 282.615 117.048C281.881 116.739 281.092 116.583 280.296 116.59H129.737Z" fill="#379AFB"/>
<path d="M276.055 122.011H133.495C132.264 122.021 131.083 122.502 130.195 123.355C129.308 124.208 128.78 125.368 128.721 126.598L125.28 212.22H277.013L280.461 126.598C280.491 126.003 280.398 125.408 280.19 124.85C279.981 124.293 279.661 123.783 279.248 123.354C278.835 122.924 278.339 122.584 277.79 122.353C277.241 122.122 276.651 122.006 276.055 122.011Z" fill="#379AFB"/>
<path opacity="0.3" d="M146.83 115.87L143.424 200.57C143.398 201.131 143.486 201.692 143.684 202.217C143.881 202.743 144.184 203.223 144.574 203.627C144.963 204.032 145.432 204.352 145.949 204.57C146.467 204.787 147.024 204.896 147.586 204.89H256.104C257.265 204.883 258.379 204.431 259.217 203.627C260.055 202.824 260.554 201.73 260.611 200.57L264.024 115.87H146.83Z" fill="black"/>
<path d="M260.316 81.209H163.116C157.744 81.2527 152.592 83.3522 148.719 87.0761C144.847 90.8 142.547 95.8656 142.294 101.232L138.233 202.032C138.207 202.593 138.296 203.153 138.494 203.678C138.693 204.203 138.996 204.683 139.385 205.087C139.774 205.491 140.242 205.812 140.759 206.029C141.277 206.247 141.833 206.357 142.394 206.352H250.942C252.102 206.343 253.215 205.89 254.053 205.087C254.891 204.284 255.39 203.191 255.449 202.032L259.51 101.232C259.767 95.8656 262.068 90.8009 265.942 87.0775C269.815 83.3541 274.967 81.2543 280.339 81.209H260.316Z" fill="#379AFB"/>
<path opacity="0.7" d="M260.316 81.209H163.116C157.744 81.2527 152.592 83.3522 148.719 87.0761C144.847 90.8 142.547 95.8656 142.294 101.232L138.233 202.032C138.207 202.593 138.296 203.153 138.494 203.678C138.693 204.203 138.996 204.683 139.385 205.087C139.774 205.491 140.242 205.812 140.759 206.029C141.277 206.247 141.833 206.357 142.394 206.352H250.942C252.102 206.343 253.215 205.89 254.053 205.087C254.891 204.284 255.39 203.191 255.449 202.032L259.51 101.232C259.767 95.8656 262.068 90.8009 265.942 87.0775C269.815 83.3541 274.967 81.2543 280.339 81.209H260.316Z" fill="white"/>
<path d="M282.96 212.58H119.361C119.266 212.58 119.174 212.542 119.107 212.475C119.039 212.407 119.001 212.316 119.001 212.22C119.001 212.125 119.039 212.033 119.107 211.966C119.174 211.898 119.266 211.86 119.361 211.86H282.96C283.055 211.86 283.147 211.898 283.214 211.966C283.282 212.033 283.32 212.125 283.32 212.22C283.32 212.316 283.282 212.407 283.214 212.475C283.147 212.542 283.055 212.58 282.96 212.58Z" fill="#379AFB"/>
<path opacity="0.1" d="M248.969 150.782H148.889C148.572 150.785 148.258 150.722 147.966 150.599C147.674 150.476 147.41 150.295 147.19 150.067C146.971 149.838 146.8 149.568 146.688 149.271C146.577 148.974 146.527 148.658 146.542 148.342L148.09 110.016C148.121 109.363 148.401 108.747 148.872 108.295C149.344 107.842 149.97 107.587 150.624 107.582H250.704C251.021 107.579 251.334 107.64 251.626 107.763C251.918 107.885 252.182 108.066 252.402 108.293C252.622 108.521 252.793 108.792 252.904 109.088C253.016 109.384 253.066 109.7 253.051 110.016L251.503 148.32C251.479 148.978 251.202 149.601 250.73 150.06C250.258 150.518 249.627 150.777 248.969 150.782Z" fill="#379AFB"/>
<path opacity="0.6" d="M203.76 193.983H147.132C146.814 193.985 146.498 193.922 146.205 193.798C145.912 193.673 145.647 193.49 145.428 193.259C145.208 193.028 145.039 192.755 144.929 192.456C144.82 192.156 144.773 191.838 144.792 191.52L146.16 157.939C146.195 157.292 146.474 156.681 146.942 156.232C147.41 155.783 148.031 155.528 148.68 155.52H205.337C205.653 155.518 205.967 155.58 206.259 155.703C206.55 155.826 206.814 156.008 207.033 156.236C207.252 156.465 207.422 156.736 207.533 157.032C207.643 157.329 207.692 157.645 207.677 157.961L206.33 191.52C206.302 192.183 206.019 192.809 205.54 193.268C205.061 193.727 204.423 193.983 203.76 193.983Z" fill="#379AFB"/>
<path d="M182.16 174.737L171.533 168.458L171.029 181.022L182.16 174.737Z" fill="white"/>
<path d="M247.226 193.983H213.631C213.314 193.985 213 193.923 212.708 193.8C212.416 193.677 212.152 193.495 211.933 193.267C211.713 193.039 211.542 192.768 211.431 192.471C211.319 192.175 211.269 191.859 211.284 191.542L212.638 157.94C212.671 157.286 212.952 156.669 213.424 156.215C213.897 155.762 214.524 155.505 215.179 155.499H248.774C249.091 155.497 249.405 155.559 249.697 155.682C249.989 155.805 250.253 155.986 250.473 156.215C250.692 156.443 250.863 156.714 250.975 157.01C251.086 157.307 251.136 157.623 251.122 157.94L249.768 191.52C249.742 192.179 249.464 192.802 248.99 193.261C248.517 193.719 247.885 193.978 247.226 193.983Z" fill="white"/>
<path opacity="0.3" d="M215.726 188.568L216.842 160.913C216.855 160.62 216.979 160.344 217.19 160.14C217.4 159.937 217.68 159.822 217.973 159.818H245.635C245.777 159.818 245.917 159.847 246.047 159.902C246.177 159.958 246.294 160.039 246.392 160.141C246.489 160.244 246.565 160.365 246.615 160.497C246.664 160.63 246.686 160.771 246.679 160.913L245.563 188.568C245.552 188.861 245.428 189.138 245.218 189.342C245.007 189.546 244.726 189.66 244.433 189.662H216.77C216.629 189.662 216.489 189.634 216.359 189.578C216.229 189.523 216.111 189.441 216.014 189.339C215.916 189.236 215.84 189.115 215.791 188.983C215.741 188.85 215.719 188.709 215.726 188.568Z" fill="#379AFB"/>
<path d="M236.441 176.379L234.929 178.798L229.99 169.74L217.526 189.663H243.684L236.441 176.379Z" fill="#379AFB"/>
<path d="M243.49 166.248C243.452 167.178 243.057 168.057 242.386 168.701C241.714 169.346 240.82 169.705 239.89 169.704C239.441 169.708 238.997 169.62 238.584 169.445C238.171 169.271 237.798 169.014 237.488 168.691C237.178 168.367 236.937 167.983 236.781 167.563C236.624 167.143 236.555 166.696 236.578 166.248C236.617 165.32 237.013 164.443 237.684 163.8C238.355 163.157 239.248 162.799 240.178 162.799C240.625 162.796 241.069 162.884 241.481 163.058C241.894 163.232 242.266 163.488 242.576 163.811C242.886 164.133 243.127 164.516 243.284 164.935C243.441 165.354 243.511 165.801 243.49 166.248Z" fill="white"/>
<path d="M75.8232 99.1152C76.7304 103.313 77.7024 111.017 74.7864 113.926C77.1336 116.129 80.1864 118.663 85.2192 118.678C90.252 118.692 89.3088 115.279 87.948 113.501C83.2104 112.529 83.268 109.037 84.0312 105.732L75.8232 99.1152Z" fill="#FF8B7B"/>
<path d="M74.0232 121.846C72.2304 125.446 70.4232 129.146 68.6592 132.804C66.8952 136.462 65.2032 140.148 63.7128 143.82C63.5184 144.274 63.3456 144.734 63.1728 145.188L62.748 146.318C62.5738 146.867 62.5054 147.444 62.5464 148.018C62.6943 149.721 63.0796 151.396 63.6912 152.993C65.097 156.656 66.8044 160.196 68.796 163.577L65.4048 166.32C62.2793 163.21 59.6126 159.67 57.4848 155.808C56.3021 153.667 55.4707 151.351 55.0224 148.946C54.7608 147.468 54.7828 145.953 55.0872 144.482L55.2312 143.87C55.2888 143.662 55.3176 143.582 55.3608 143.438L55.5984 142.654C55.7568 142.128 55.908 141.602 56.0808 141.091C57.4344 136.98 59.0256 133.063 60.7176 129.197C62.4096 125.33 64.2528 121.55 66.24 117.792L74.0232 121.846Z" fill="#FF8B7B"/>
<path d="M67.7592 114.307C62.4672 115.963 59.2488 127.267 59.2488 127.267L70.1424 136.411C72.2335 132.319 74.0566 128.096 75.6 123.768C78.1632 116.395 74.16 112.32 67.7592 114.307Z" fill="#379AFB"/>
<g opacity="0.2">
<path opacity="0.2" d="M67.7592 114.307C62.4672 115.963 59.2488 127.267 59.2488 127.267L70.1424 136.411C72.2335 132.319 74.0566 128.096 75.6 123.768C78.1632 116.395 74.16 112.32 67.7592 114.307Z" fill="black"/>
</g>
<path d="M67.6008 162.273L71.9208 166.255L66.06 169.92C66.06 169.92 62.5464 165.837 64.3464 163.627L67.6008 162.273Z" fill="#FF8B7B"/>
<path d="M72.3671 172.368L70.0847 173.297C69.6381 173.474 69.1429 173.487 68.6877 173.333C68.2326 173.178 67.8473 172.867 67.6007 172.454L66.0599 169.92L71.9495 166.248L73.3895 169.668C73.5022 169.912 73.5651 170.176 73.5746 170.445C73.584 170.713 73.5399 170.981 73.4447 171.233C73.3495 171.484 73.2052 171.714 73.0202 171.909C72.8352 172.104 72.6132 172.26 72.3671 172.368Z" fill="#FF8B7B"/>
<path d="M94.8671 113.81C86.2991 112.37 75.8519 111.91 67.8671 114.185C66.8158 114.493 65.9244 115.195 65.3795 116.145C64.8346 117.095 64.6785 118.22 64.9439 119.282C69.7535 140.09 68.3639 161.107 68.8319 165.557L99.7343 165.06C101.261 139.615 99.5183 123.826 98.5535 117.54C98.4069 116.611 97.9723 115.751 97.3109 115.082C96.6495 114.412 95.7947 113.968 94.8671 113.81Z" fill="#379AFB"/>
<path d="M97.1496 116.755C99.8568 119.34 102.643 121.975 105.415 124.517C106.807 125.798 108.204 127.044 109.606 128.254C110.995 129.463 112.421 130.637 113.796 131.63C114.385 132.072 115.004 132.474 115.646 132.833L115.819 132.926H115.906H115.949H115.826H115.632C115.423 132.926 115.495 132.991 115.632 132.962C116.238 132.815 116.816 132.572 117.346 132.242C118.092 131.856 118.818 131.431 119.52 130.968C122.487 128.766 125.338 126.411 128.059 123.912L131.443 126.626C130.413 128.359 129.276 130.025 128.038 131.616C126.795 133.257 125.433 134.804 123.962 136.246C123.18 137.022 122.345 137.743 121.464 138.406C120.419 139.208 119.265 139.858 118.037 140.335C117.136 140.667 116.181 140.823 115.222 140.796C114.915 140.784 114.61 140.753 114.307 140.702L113.839 140.594L113.537 140.508L112.939 140.314L112.442 140.112C111.349 139.637 110.294 139.076 109.289 138.434C105.89 136.202 102.653 133.731 99.6048 131.04C96.6168 128.441 93.7728 125.798 90.9648 122.969L97.1496 116.755Z" fill="#FF8B7B"/>
<path d="M87.4945 119.088C86.7241 124.581 99.7345 135.057 99.7345 135.057L106.74 124.315C106.74 124.315 105.3 121.572 100.109 116.704C94.7809 111.708 88.3441 113.04 87.4945 119.088Z" fill="#379AFB"/>
<path opacity="0.6" d="M235.534 141.653L135.655 148.198C135.339 148.22 135.022 148.178 134.723 148.074C134.424 147.97 134.15 147.807 133.916 147.593C133.682 147.379 133.494 147.121 133.364 146.832C133.233 146.544 133.163 146.232 133.157 145.915L132.192 107.575C132.181 106.922 132.42 106.288 132.86 105.805C133.301 105.322 133.909 105.025 134.561 104.976L234.446 98.4312C234.762 98.4087 235.079 98.4507 235.377 98.5547C235.676 98.6587 235.95 98.8225 236.183 99.0361C236.416 99.2498 236.604 99.5087 236.733 99.7971C236.863 100.086 236.933 100.397 236.938 100.714L237.91 139.054C237.921 139.708 237.68 140.342 237.239 140.826C236.797 141.309 236.187 141.605 235.534 141.653Z" fill="white"/>
<path d="M185.134 119.009L186.487 121.529C186.502 121.561 186.525 121.587 186.555 121.606C186.584 121.626 186.618 121.636 186.653 121.637L189.533 121.867C189.574 121.87 189.613 121.885 189.646 121.91C189.679 121.935 189.704 121.969 189.718 122.007C189.733 122.046 189.736 122.088 189.727 122.128C189.719 122.168 189.699 122.205 189.67 122.234L187.639 124.394C187.614 124.421 187.596 124.453 187.586 124.488C187.576 124.523 187.575 124.56 187.582 124.596L188.143 127.426C188.151 127.466 188.148 127.508 188.134 127.547C188.121 127.586 188.097 127.62 188.065 127.647C188.033 127.673 187.995 127.691 187.955 127.697C187.914 127.704 187.872 127.7 187.834 127.685L185.227 126.497C185.196 126.481 185.161 126.473 185.126 126.473C185.091 126.473 185.057 126.481 185.026 126.497L182.491 128.016C182.457 128.036 182.417 128.046 182.377 128.046C182.338 128.045 182.299 128.033 182.265 128.011C182.231 127.99 182.205 127.959 182.187 127.923C182.17 127.887 182.163 127.847 182.167 127.807L182.585 124.927C182.591 124.893 182.588 124.858 182.577 124.825C182.566 124.792 182.546 124.763 182.52 124.74L180.36 122.846C180.331 122.817 180.31 122.78 180.299 122.74C180.289 122.7 180.29 122.658 180.302 122.618C180.313 122.578 180.336 122.542 180.366 122.514C180.397 122.486 180.435 122.466 180.475 122.458L183.355 121.853C183.391 121.844 183.424 121.829 183.452 121.806C183.481 121.784 183.504 121.755 183.521 121.723L184.738 119.03C184.752 118.991 184.778 118.956 184.812 118.931C184.846 118.906 184.886 118.892 184.929 118.889C184.971 118.887 185.012 118.897 185.049 118.918C185.085 118.94 185.115 118.971 185.134 119.009Z" fill="#379AFB"/>
<path d="M202.565 117.864L203.911 120.391C203.93 120.421 203.956 120.446 203.986 120.465C204.015 120.483 204.049 120.495 204.084 120.499L206.964 120.729C207.005 120.734 207.043 120.75 207.075 120.775C207.107 120.8 207.131 120.834 207.144 120.872C207.158 120.911 207.16 120.952 207.151 120.992C207.142 121.031 207.122 121.068 207.094 121.097L205.071 123.257C205.046 123.282 205.028 123.313 205.018 123.347C205.007 123.381 205.006 123.416 205.013 123.451L205.575 126.288C205.582 126.329 205.578 126.371 205.563 126.409C205.548 126.448 205.523 126.482 205.491 126.508C205.459 126.534 205.42 126.55 205.379 126.556C205.338 126.562 205.296 126.556 205.258 126.54L202.659 125.352C202.627 125.336 202.593 125.328 202.558 125.328C202.523 125.328 202.488 125.336 202.457 125.352L199.923 126.878C199.888 126.899 199.847 126.909 199.807 126.908C199.766 126.907 199.726 126.895 199.693 126.872C199.659 126.85 199.632 126.818 199.615 126.781C199.599 126.744 199.593 126.703 199.599 126.662L200.016 123.782C200.021 123.746 200.017 123.71 200.004 123.676C199.992 123.642 199.971 123.612 199.944 123.588L197.82 121.68C197.79 121.652 197.769 121.616 197.758 121.577C197.747 121.537 197.747 121.496 197.758 121.456C197.769 121.417 197.791 121.381 197.821 121.353C197.851 121.326 197.888 121.306 197.928 121.298L200.808 120.693C200.844 120.686 200.877 120.669 200.905 120.646C200.933 120.622 200.954 120.591 200.967 120.557L202.183 117.871C202.203 117.838 202.23 117.81 202.263 117.791C202.296 117.771 202.334 117.761 202.372 117.76C202.41 117.759 202.448 117.769 202.482 117.787C202.516 117.805 202.544 117.831 202.565 117.864Z" fill="#379AFB"/>
<path d="M219.996 116.719L221.342 119.247C221.358 119.277 221.382 119.303 221.411 119.322C221.44 119.341 221.473 119.352 221.508 119.355L224.388 119.585C224.429 119.588 224.468 119.603 224.501 119.628C224.534 119.653 224.559 119.686 224.574 119.725C224.588 119.763 224.591 119.805 224.582 119.846C224.574 119.886 224.554 119.923 224.525 119.952L222.494 122.112C222.469 122.139 222.451 122.171 222.441 122.206C222.431 122.241 222.43 122.278 222.437 122.314L222.998 125.143C223.007 125.184 223.005 125.226 222.991 125.265C222.978 125.304 222.954 125.339 222.921 125.365C222.889 125.391 222.85 125.408 222.809 125.413C222.768 125.419 222.727 125.412 222.689 125.395L220.09 124.215C220.058 124.197 220.022 124.188 219.985 124.188C219.949 124.188 219.913 124.197 219.881 124.215L217.346 125.734C217.312 125.754 217.272 125.764 217.233 125.763C217.193 125.762 217.154 125.751 217.12 125.729C217.087 125.707 217.06 125.677 217.042 125.641C217.025 125.605 217.018 125.565 217.022 125.525L217.44 122.645C217.446 122.611 217.443 122.576 217.432 122.543C217.421 122.51 217.401 122.481 217.375 122.458L215.215 120.564C215.186 120.535 215.165 120.498 215.154 120.458C215.144 120.418 215.145 120.375 215.157 120.335C215.169 120.295 215.191 120.26 215.221 120.231C215.252 120.203 215.29 120.184 215.33 120.175L218.21 119.571C218.246 119.563 218.28 119.548 218.308 119.525C218.337 119.503 218.36 119.474 218.376 119.441L219.593 116.748C219.608 116.709 219.634 116.674 219.668 116.649C219.702 116.624 219.743 116.609 219.785 116.606C219.827 116.603 219.87 116.612 219.907 116.632C219.944 116.652 219.975 116.682 219.996 116.719Z" fill="#379AFB"/>
<path d="M167.71 120.146L169.056 122.674C169.075 122.703 169.101 122.728 169.13 122.747C169.16 122.766 169.194 122.777 169.229 122.782L172.109 123.012C172.149 123.016 172.188 123.032 172.22 123.057C172.252 123.083 172.276 123.116 172.289 123.155C172.303 123.193 172.305 123.235 172.296 123.274C172.287 123.314 172.267 123.35 172.239 123.379L170.215 125.539C170.191 125.564 170.172 125.595 170.162 125.629C170.152 125.663 170.151 125.699 170.158 125.734L170.719 128.57C170.727 128.611 170.723 128.653 170.708 128.692C170.693 128.731 170.668 128.765 170.636 128.791C170.604 128.816 170.565 128.833 170.524 128.839C170.483 128.844 170.441 128.839 170.403 128.822L167.803 127.634C167.772 127.619 167.738 127.61 167.703 127.61C167.668 127.61 167.633 127.619 167.602 127.634L165.067 129.161C165.032 129.182 164.992 129.192 164.952 129.191C164.911 129.19 164.871 129.177 164.837 129.155C164.804 129.132 164.777 129.1 164.76 129.063C164.744 129.026 164.738 128.985 164.743 128.945L165.161 126.065C165.166 126.029 165.162 125.993 165.149 125.959C165.136 125.925 165.116 125.895 165.089 125.87L162.965 123.977C162.935 123.949 162.914 123.913 162.903 123.874C162.892 123.834 162.892 123.792 162.903 123.753C162.914 123.714 162.936 123.678 162.966 123.65C162.996 123.622 163.033 123.603 163.073 123.595L165.953 122.99C165.987 122.982 166.019 122.966 166.047 122.943C166.074 122.921 166.096 122.893 166.111 122.861L167.328 120.168C167.346 120.134 167.373 120.105 167.405 120.084C167.437 120.064 167.475 120.052 167.513 120.049C167.551 120.047 167.59 120.055 167.624 120.072C167.659 120.089 167.688 120.115 167.71 120.146Z" fill="#379AFB"/>
<path d="M150.278 121.291L151.632 123.811C151.646 123.844 151.669 123.871 151.699 123.89C151.728 123.909 151.762 123.92 151.798 123.919L154.678 124.15C154.718 124.154 154.756 124.17 154.788 124.195C154.82 124.221 154.844 124.254 154.858 124.293C154.871 124.331 154.874 124.373 154.865 124.412C154.856 124.452 154.836 124.488 154.807 124.517L152.784 126.677C152.759 126.704 152.741 126.736 152.731 126.771C152.721 126.806 152.719 126.843 152.726 126.879L153.288 129.715C153.294 129.755 153.29 129.796 153.276 129.834C153.261 129.872 153.237 129.905 153.206 129.931C153.175 129.956 153.137 129.973 153.097 129.98C153.057 129.986 153.016 129.982 152.978 129.967L150.372 128.779C150.341 128.764 150.306 128.755 150.271 128.755C150.236 128.755 150.202 128.764 150.17 128.779L147.636 130.32C147.602 130.344 147.562 130.356 147.521 130.357C147.479 130.358 147.439 130.346 147.404 130.324C147.37 130.302 147.342 130.269 147.326 130.232C147.31 130.194 147.305 130.152 147.312 130.111L147.73 127.231C147.736 127.197 147.733 127.162 147.722 127.129C147.71 127.097 147.691 127.067 147.665 127.044L145.505 125.151C145.475 125.122 145.453 125.086 145.443 125.046C145.432 125.006 145.433 124.964 145.445 124.924C145.457 124.885 145.479 124.849 145.51 124.822C145.541 124.795 145.579 124.776 145.62 124.769L148.5 124.157C148.535 124.151 148.568 124.136 148.596 124.113C148.624 124.09 148.645 124.061 148.658 124.027L149.882 121.335C149.894 121.294 149.918 121.258 149.951 121.23C149.984 121.203 150.024 121.186 150.066 121.181C150.108 121.177 150.151 121.185 150.189 121.204C150.227 121.224 150.258 121.254 150.278 121.291Z" fill="#379AFB"/>
<path d="M127.325 124.704L131.314 119.448L135.734 124.38C135.734 124.38 133.2 128.851 129.118 127.649L127.325 124.704Z" fill="#FF8B7B"/>
<path d="M137.045 117.605L138.204 120.485C138.304 120.723 138.335 120.985 138.291 121.24C138.248 121.495 138.133 121.733 137.959 121.925L135.735 124.394L131.314 119.462L135.101 116.978C135.265 116.872 135.451 116.803 135.645 116.778C135.838 116.752 136.036 116.77 136.222 116.83C136.408 116.89 136.578 116.99 136.721 117.124C136.863 117.259 136.974 117.423 137.045 117.605Z" fill="#FF8B7B"/>
<path d="M90.2376 93.974C90.2376 94.442 90.5256 94.8092 90.828 94.802C91.1304 94.7948 91.3608 94.406 91.3392 93.938C91.3176 93.47 91.0512 93.1028 90.7488 93.11C90.4464 93.1172 90.216 93.506 90.2376 93.974Z" fill="#263238"/>
<path d="M90.54 94.3198C91.1649 95.7254 91.9762 97.0404 92.952 98.2294C92.6435 98.4682 92.286 98.6359 91.9052 98.7206C91.5243 98.8052 91.1295 98.8047 90.7488 98.719L90.54 94.3198Z" fill="#FF5652"/>
<path d="M89.2801 91.5767C89.324 91.5815 89.3683 91.5748 89.4088 91.5571C89.4492 91.5394 89.4843 91.5114 89.5105 91.4759C89.712 91.2019 89.9774 90.9813 90.2835 90.8332C90.5897 90.6852 90.9274 90.6141 91.2673 90.6263C91.3032 90.6293 91.3394 90.6251 91.3738 90.614C91.4081 90.6029 91.4399 90.5851 91.4673 90.5617C91.4947 90.5383 91.5173 90.5097 91.5336 90.4775C91.55 90.4453 91.5598 90.4103 91.5625 90.3743C91.5647 90.3014 91.5391 90.2304 91.491 90.1756C91.4429 90.1209 91.3758 90.0864 91.3033 90.0791C90.8747 90.0588 90.4478 90.1441 90.0599 90.3274C89.6719 90.5106 89.335 90.7864 89.0785 91.1303C89.0489 91.1704 89.0305 91.2178 89.0252 91.2674C89.02 91.317 89.028 91.3671 89.0486 91.4125C89.0691 91.458 89.1014 91.4972 89.1421 91.526C89.1828 91.5549 89.2304 91.5724 89.2801 91.5767Z" fill="#263238"/>
<path d="M74.5415 92.7574C75.1607 98.467 75.2615 101.837 78.2567 104.673C82.8143 108.95 89.7767 106.113 90.8495 100.353C91.8359 95.1766 90.6551 86.6734 84.9527 84.6142C83.7103 84.1384 82.3658 83.9922 81.0501 84.1897C79.7344 84.3872 78.4922 84.9218 77.4442 85.7415C76.3962 86.5612 75.5782 87.6381 75.0695 88.8675C74.5609 90.0969 74.379 91.4369 74.5415 92.7574Z" fill="#FF8B7B"/>
<path d="M85.9969 95.9976C86.7169 98.2008 85.1977 102.917 84.7225 104.357C84.2473 105.797 82.2385 107.064 78.7177 106.733C78.1047 106.692 77.5063 106.527 76.9585 106.249C76.4107 105.971 75.9248 105.585 75.53 105.114C75.1352 104.643 74.8397 104.097 74.6612 103.509C74.4827 102.921 74.4249 102.304 74.4913 101.693C72.9217 101.455 71.2369 98.5824 71.3233 96.588C71.4097 94.5936 68.4433 92.52 68.0833 90.576C67.7233 88.632 69.3577 85.932 71.5177 87.2928C70.1209 85.8528 69.9985 82.2528 74.2825 81.5328C77.7025 80.9928 81.2377 82.8144 83.8801 81.7776C86.5225 80.7408 90.0217 80.0568 90.7921 82.1736C92.2321 81.3312 94.3921 83.016 93.6721 85.6152C92.9521 88.2144 87.6745 89.7336 87.6745 89.7336C87.6745 89.7336 89.6401 94.8384 85.9969 95.9976Z" fill="#263238"/>
<path d="M71.8416 88.4375C71.7358 88.4377 71.6313 88.4145 71.5355 88.3697C71.4397 88.3249 71.3549 88.2596 71.2872 88.1783C69.9768 86.5943 68.2344 82.8647 70.9704 80.0927C71.1053 79.9586 71.2878 79.8833 71.478 79.8833C71.6682 79.8833 71.8507 79.9586 71.9856 80.0927C72.0531 80.1596 72.1067 80.2392 72.1432 80.327C72.1798 80.4147 72.1986 80.5088 72.1986 80.6039C72.1986 80.6989 72.1798 80.793 72.1432 80.8808C72.1067 80.9685 72.0531 81.0481 71.9856 81.1151C69.48 83.6495 72.2664 87.1271 72.3888 87.2711C72.4743 87.3764 72.5282 87.5037 72.5445 87.6384C72.5608 87.7731 72.5386 87.9096 72.4807 88.0322C72.4228 88.1549 72.3314 88.2587 72.217 88.3316C72.1027 88.4046 71.9701 88.4438 71.8344 88.4447L71.8416 88.4375Z" fill="#263238"/>
<path d="M72.4823 89.2009C72.3741 89.2004 72.2675 89.1755 72.1703 89.1281C72.073 89.0808 71.9877 89.0121 71.9207 88.9273C71.7983 88.7833 68.9759 85.3272 65.9735 87.2712C65.8121 87.3744 65.6164 87.4092 65.4294 87.368C65.2424 87.3268 65.0794 87.213 64.9763 87.0516C64.8732 86.8903 64.8384 86.6946 64.8796 86.5076C64.9208 86.3206 65.0345 86.1576 65.1959 86.0544C68.4719 83.952 71.7623 86.4288 73.0439 88.0273C73.1033 88.1013 73.1475 88.1865 73.1738 88.2777C73.2002 88.3689 73.2083 88.4645 73.1976 88.5588C73.1869 88.6532 73.1576 88.7445 73.1114 88.8275C73.0653 88.9105 73.0032 88.9836 72.9287 89.0425C72.802 89.1441 72.6447 89.1999 72.4823 89.2009Z" fill="#263238"/>
<path d="M82.9512 96.595C83.3906 97.8019 84.2847 98.7891 85.4424 99.3454C86.9832 100.065 88.02 98.7838 87.8112 97.1854C87.6312 95.7454 86.6016 93.6574 84.9312 93.5854C83.2608 93.5134 82.4328 95.1118 82.9512 96.595Z" fill="#FF8B7B"/>
<path d="M49.327 285.048C49.3144 285.026 49.3077 285.001 49.3077 284.976C49.3077 284.95 49.3144 284.926 49.327 284.904C49.3388 284.878 49.3583 284.857 49.3828 284.842C49.4073 284.828 49.4356 284.822 49.4638 284.825C49.759 284.825 52.3438 285.041 52.7686 285.739C52.8073 285.804 52.8277 285.879 52.8277 285.955C52.8277 286.031 52.8073 286.105 52.7686 286.171C52.7225 286.285 52.6479 286.385 52.5522 286.462C52.4564 286.539 52.3425 286.59 52.2214 286.61C51.3862 286.754 50.0614 285.703 49.3414 285.062L49.327 285.048ZM52.4734 285.84C52.171 285.487 50.839 285.242 49.831 285.12C50.8318 285.962 51.6814 286.409 52.1494 286.322C52.2292 286.309 52.3043 286.276 52.3674 286.226C52.4304 286.175 52.4794 286.109 52.5094 286.034C52.5239 286.008 52.5315 285.978 52.5315 285.948C52.5315 285.918 52.5239 285.888 52.5094 285.861L52.4734 285.84Z" fill="#379AFB"/>
<path d="M43.2145 284.587L48.8449 285.919L54.2665 273.47L48.6361 272.138L43.2145 284.587Z" fill="#FF8B7B"/>
<path d="M49.5072 284.947L43.7904 282.161C43.6922 282.11 43.5782 282.098 43.4714 282.127C43.3645 282.156 43.2728 282.225 43.2144 282.319L40.4784 286.639C40.4128 286.753 40.3713 286.879 40.3565 287.01C40.3418 287.14 40.354 287.272 40.3925 287.398C40.431 287.524 40.4949 287.64 40.5803 287.74C40.6657 287.84 40.7707 287.921 40.8888 287.978C42.9624 288.943 43.6896 289.102 46.2816 290.369C49.3128 291.845 49.1616 292.694 52.7112 294.43C54.8712 295.474 56.2392 293.508 55.4184 292.86C53.2467 291.019 51.5917 288.644 50.616 285.97C50.389 285.501 49.9928 285.136 49.5072 284.947Z" fill="#263238"/>
<path opacity="0.2" d="M54.2664 273.47L51.3144 280.253L45.8352 278.561L48.6288 272.138L54.2664 273.47Z" fill="black"/>
<path d="M61.3151 220.795C65.7647 195.063 65.0735 171.36 68.8319 165.557L89.2511 165.226C89.2511 165.226 79.0775 206.583 74.3111 223.603C69.3647 241.294 54.4319 277.683 54.4319 277.683L45.4823 274.918C45.4823 274.918 54.3023 240.48 61.3151 220.795Z" fill="#263238"/>
<path opacity="0.2" d="M81 182.038C76.6152 187.798 76.9104 203.926 77.4 212.177C79.128 205.596 81.0504 198.079 82.8288 191.016L81 182.038Z" fill="black"/>
<path d="M86.148 293.134C86.1232 293.123 86.1021 293.106 86.0872 293.083C86.0724 293.061 86.0645 293.035 86.0645 293.008C86.0645 292.981 86.0724 292.954 86.0872 292.932C86.1021 292.91 86.1232 292.892 86.148 292.882C86.4072 292.745 88.6824 291.528 89.3952 291.91C89.4633 291.944 89.5216 291.995 89.5644 292.058C89.6073 292.121 89.6333 292.194 89.64 292.27C89.6625 292.392 89.6532 292.517 89.6128 292.635C89.5724 292.752 89.5024 292.857 89.4096 292.939C88.7976 293.515 87.1344 293.314 86.1984 293.141L86.148 293.134ZM89.1936 292.133C88.7544 291.989 87.516 292.486 86.616 292.939C87.8976 293.134 88.848 293.062 89.1936 292.738C89.2514 292.682 89.2947 292.612 89.3198 292.536C89.3449 292.459 89.351 292.378 89.3376 292.298C89.3375 292.268 89.3286 292.238 89.312 292.213C89.2954 292.187 89.2718 292.167 89.244 292.154L89.1936 292.133Z" fill="#379AFB"/>
<path d="M86.1481 293.134H86.1121C86.0921 293.12 86.0762 293.102 86.066 293.08C86.0559 293.059 86.0519 293.035 86.0545 293.011C86.0545 292.939 86.1481 291.384 86.8609 290.772C86.9575 290.683 87.0711 290.615 87.1949 290.572C87.3187 290.528 87.45 290.511 87.5809 290.52C87.9553 290.52 88.0705 290.743 88.1065 290.894C88.2361 291.55 86.9041 292.817 86.2201 293.141C86.1959 293.146 86.1708 293.143 86.1481 293.134ZM87.7321 290.808H87.5953C87.4949 290.799 87.3937 290.81 87.2982 290.843C87.2027 290.875 87.115 290.927 87.0409 290.995C86.6171 291.501 86.365 292.129 86.3209 292.788C87.0409 292.349 87.9121 291.348 87.8329 290.959C87.8401 290.88 87.8401 290.88 87.7321 290.808Z" fill="#379AFB"/>
<path d="M80.0137 293.767L85.7881 293.681L86.0329 280.274L80.2657 280.361L80.0137 293.767Z" fill="#FF8B7B"/>
<path d="M86.2343 293.04L79.9343 293.141C79.8234 293.139 79.7158 293.179 79.634 293.255C79.5523 293.33 79.5025 293.433 79.4951 293.544L79.0703 298.692C79.0624 298.824 79.0817 298.956 79.1272 299.08C79.1727 299.204 79.2433 299.317 79.3345 299.412C79.4258 299.507 79.5358 299.583 79.6576 299.634C79.7794 299.684 79.9104 299.709 80.0423 299.707C82.3103 299.635 85.5719 299.448 88.4303 299.405C91.7639 299.354 91.4471 299.491 95.3639 299.405C97.7255 299.369 98.0568 296.964 97.0344 296.762C92.3832 295.841 91.9151 295.79 87.6743 293.443C87.2365 293.188 86.7409 293.05 86.2343 293.04Z" fill="#263238"/>
<path opacity="0.2" d="M86.0329 280.274L85.9105 287.186L80.1361 287.28L80.2585 280.368L86.0329 280.274Z" fill="black"/>
<path d="M81.6264 222.422C80.7408 195.458 75.0816 180 75.6 165.449L99.7128 165.06C99.7128 165.06 97.3008 206.935 95.5368 224.518C93.708 242.798 88.0704 284.868 88.0704 284.868L78.2784 285.019C78.2784 285.019 79.2 245.362 81.6264 222.422Z" fill="#263238"/>
<path opacity="0.3" d="M86.3496 283.816C86.3259 283.815 86.3028 283.808 86.2817 283.797C86.2605 283.787 86.2417 283.772 86.2263 283.754C86.2109 283.736 86.1993 283.715 86.192 283.692C86.1847 283.67 86.182 283.646 86.184 283.622C86.8392 276.912 88.0416 266.947 89.3232 256.406C90.7128 244.886 92.16 232.977 92.9736 224.503C94.5288 208.31 97.056 173.973 97.128 170.071C96.2145 169.89 95.3592 169.488 94.6365 168.9C93.9137 168.313 93.3453 167.558 92.9808 166.701C92.9729 166.679 92.9697 166.655 92.9712 166.631C92.9728 166.607 92.9791 166.583 92.9899 166.562C93.0006 166.54 93.0155 166.521 93.0337 166.506C93.052 166.49 93.0731 166.478 93.096 166.471C93.1177 166.463 93.1408 166.46 93.1639 166.461C93.187 166.462 93.2096 166.468 93.2304 166.478C93.2512 166.488 93.2698 166.502 93.2851 166.519C93.3003 166.537 93.3119 166.557 93.3192 166.579C93.6725 167.4 94.226 168.12 94.9291 168.672C95.6322 169.224 96.4624 169.591 97.344 169.74C97.386 169.748 97.4239 169.77 97.4514 169.803C97.4789 169.836 97.4943 169.877 97.4952 169.92C97.4952 172.994 94.9104 208.08 93.3336 224.539C92.5128 233.02 91.0728 244.929 89.676 256.442C88.4016 266.99 87.1992 276.948 86.544 283.658C86.5422 283.681 86.5357 283.704 86.5248 283.725C86.514 283.746 86.499 283.764 86.4808 283.779C86.4626 283.794 86.4416 283.805 86.419 283.811C86.3965 283.818 86.3728 283.819 86.3496 283.816Z" fill="white"/>
<path d="M88.6896 286.027L77.0544 286.207L76.5648 282.442L89.5536 282.038L88.6896 286.027Z" fill="#263238"/>
<path d="M55.1088 279.907L43.9344 276.472L44.388 272.685L56.9016 276.321L55.1088 279.907Z" fill="#263238"/>
<path d="M340.699 76.9879H338.212L332.818 69.5115V64.6165C332.818 64.6165 328.972 64.3835 329.427 70.7935C329.882 77.2035 329.391 75.566 329.391 75.566C329.391 75.566 321.233 75.601 320.529 76.3003C320.033 76.8072 319.815 84.8023 319.726 89.1203C319.674 90.1662 319.977 91.1994 320.588 92.0557C321.2 92.912 322.083 93.5422 323.099 93.8462C323.378 93.9284 323.666 93.9754 323.956 93.9861C325.988 93.9861 336.363 92.3545 336.363 92.3545H340.658L340.699 76.9879Z" fill="#AFD7FF"/>
<path d="M347.413 75.5244L345.86 92.3076H341.538V75.8626L347.413 75.5244Z" fill="#AFD7FF"/>
</svg>
