<svg width="262" height="48" viewBox="0 0 262 48" fill="none" xmlns="http://www.w3.org/2000/svg">
<g clip-path="url(#clip0_149_1853)">
<path d="M21.4313 7.516V25H17.8553V14.944C17.8553 14.712 17.8593 14.46 17.8673 14.188C17.8833 13.916 17.9073 13.64 17.9393 13.36L13.2953 22.348C13.1513 22.628 12.9553 22.84 12.7073 22.984C12.4673 23.128 12.1913 23.2 11.8793 23.2H11.3273C11.0153 23.2 10.7353 23.128 10.4873 22.984C10.2473 22.84 10.0553 22.628 9.91125 22.348L5.26725 13.336C5.29125 13.624 5.31125 13.908 5.32725 14.188C5.34325 14.46 5.35125 14.712 5.35125 14.944V25H1.77525V7.516H4.87125C5.04725 7.516 5.19925 7.52 5.32725 7.528C5.46325 7.536 5.58325 7.56 5.68725 7.6C5.79125 7.64 5.88325 7.704 5.96325 7.792C6.05125 7.872 6.13525 7.988 6.21525 8.14L10.7153 17.008C10.8753 17.312 11.0273 17.628 11.1713 17.956C11.3233 18.284 11.4673 18.62 11.6033 18.964C11.7393 18.612 11.8793 18.268 12.0233 17.932C12.1753 17.596 12.3353 17.276 12.5033 16.972L16.9913 8.14C17.0713 7.988 17.1513 7.872 17.2313 7.792C17.3193 7.704 17.4153 7.64 17.5193 7.6C17.6233 7.56 17.7393 7.536 17.8673 7.528C18.0033 7.52 18.1593 7.516 18.3353 7.516H21.4313ZM32.1273 17.284C32.1273 16.988 32.0873 16.7 32.0073 16.42C31.9353 16.14 31.8113 15.892 31.6353 15.676C31.4673 15.452 31.2433 15.272 30.9633 15.136C30.6833 15 30.3433 14.932 29.9433 14.932C29.2393 14.932 28.6873 15.136 28.2873 15.544C27.8873 15.944 27.6233 16.524 27.4953 17.284H32.1273ZM27.4473 19.444C27.5673 20.484 27.8833 21.24 28.3953 21.712C28.9073 22.176 29.5673 22.408 30.3753 22.408C30.8073 22.408 31.1793 22.356 31.4913 22.252C31.8033 22.148 32.0793 22.032 32.3193 21.904C32.5673 21.776 32.7913 21.66 32.9913 21.556C33.1993 21.452 33.4153 21.4 33.6393 21.4C33.9353 21.4 34.1593 21.508 34.3113 21.724L35.3913 23.056C35.0073 23.496 34.5913 23.856 34.1433 24.136C33.7033 24.408 33.2473 24.624 32.7753 24.784C32.3113 24.936 31.8433 25.04 31.3713 25.096C30.9073 25.16 30.4633 25.192 30.0393 25.192C29.1673 25.192 28.3473 25.052 27.5793 24.772C26.8193 24.484 26.1513 24.06 25.5753 23.5C25.0073 22.94 24.5553 22.244 24.2193 21.412C23.8913 20.58 23.7273 19.612 23.7273 18.508C23.7273 17.676 23.8673 16.888 24.1473 16.144C24.4353 15.4 24.8433 14.748 25.3713 14.188C25.9073 13.628 26.5513 13.184 27.3033 12.856C28.0633 12.528 28.9193 12.364 29.8713 12.364C30.6953 12.364 31.4473 12.492 32.1273 12.748C32.8153 13.004 33.4033 13.376 33.8913 13.864C34.3873 14.352 34.7713 14.952 35.0433 15.664C35.3233 16.368 35.4633 17.168 35.4633 18.064C35.4633 18.344 35.4513 18.572 35.4273 18.748C35.4033 18.924 35.3593 19.064 35.2953 19.168C35.2313 19.272 35.1433 19.344 35.0313 19.384C34.9273 19.424 34.7913 19.444 34.6233 19.444H27.4473ZM41.1848 14.476C41.5688 13.804 42.0088 13.276 42.5048 12.892C43.0088 12.508 43.5848 12.316 44.2328 12.316C44.7928 12.316 45.2488 12.448 45.6008 12.712L45.3608 15.448C45.3208 15.624 45.2528 15.744 45.1568 15.808C45.0688 15.872 44.9448 15.904 44.7848 15.904C44.7208 15.904 44.6368 15.9 44.5328 15.892C44.4288 15.884 44.3208 15.876 44.2088 15.868C44.0968 15.852 43.9808 15.84 43.8608 15.832C43.7488 15.816 43.6448 15.808 43.5488 15.808C43.0048 15.808 42.5688 15.952 42.2408 16.24C41.9208 16.528 41.6488 16.928 41.4248 17.44V25H37.7048V12.556H39.9128C40.0968 12.556 40.2488 12.572 40.3688 12.604C40.4968 12.636 40.6008 12.688 40.6808 12.76C40.7688 12.824 40.8328 12.912 40.8728 13.024C40.9208 13.136 40.9608 13.272 40.9928 13.432L41.1848 14.476ZM53.5517 19.936C52.8077 19.968 52.1957 20.032 51.7157 20.128C51.2357 20.224 50.8557 20.344 50.5757 20.488C50.2957 20.632 50.0997 20.796 49.9877 20.98C49.8837 21.164 49.8317 21.364 49.8317 21.58C49.8317 22.004 49.9477 22.304 50.1797 22.48C50.4117 22.648 50.7517 22.732 51.1997 22.732C51.6797 22.732 52.0997 22.648 52.4597 22.48C52.8197 22.312 53.1837 22.04 53.5517 21.664V19.936ZM46.8557 14.284C47.6077 13.62 48.4397 13.128 49.3517 12.808C50.2717 12.48 51.2557 12.316 52.3037 12.316C53.0557 12.316 53.7317 12.44 54.3317 12.688C54.9397 12.928 55.4517 13.268 55.8677 13.708C56.2917 14.14 56.6157 14.656 56.8397 15.256C57.0637 15.856 57.1757 16.512 57.1757 17.224V25H55.4717C55.1197 25 54.8517 24.952 54.6677 24.856C54.4917 24.76 54.3437 24.56 54.2237 24.256L53.9597 23.572C53.6477 23.836 53.3477 24.068 53.0597 24.268C52.7717 24.468 52.4717 24.64 52.1597 24.784C51.8557 24.92 51.5277 25.02 51.1757 25.084C50.8317 25.156 50.4477 25.192 50.0237 25.192C49.4557 25.192 48.9397 25.12 48.4757 24.976C48.0117 24.824 47.6157 24.604 47.2877 24.316C46.9677 24.028 46.7197 23.672 46.5437 23.248C46.3677 22.816 46.2797 22.32 46.2797 21.76C46.2797 21.312 46.3917 20.86 46.6157 20.404C46.8397 19.94 47.2277 19.52 47.7797 19.144C48.3317 18.76 49.0757 18.44 50.0117 18.184C50.9477 17.928 52.1277 17.784 53.5517 17.752V17.224C53.5517 16.496 53.3997 15.972 53.0957 15.652C52.7997 15.324 52.3757 15.16 51.8237 15.16C51.3837 15.16 51.0237 15.208 50.7437 15.304C50.4637 15.4 50.2117 15.508 49.9877 15.628C49.7717 15.748 49.5597 15.856 49.3517 15.952C49.1437 16.048 48.8957 16.096 48.6077 16.096C48.3517 16.096 48.1357 16.032 47.9597 15.904C47.7837 15.776 47.6397 15.624 47.5277 15.448L46.8557 14.284Z" fill="#6FCCEA"/>
<path d="M72.1496 20.476C72.2456 20.476 72.3416 20.496 72.4376 20.536C72.5336 20.568 72.6256 20.628 72.7136 20.716L74.3216 22.408C73.6176 23.328 72.7336 24.024 71.6696 24.496C70.6136 24.96 69.3616 25.192 67.9136 25.192C66.5856 25.192 65.3936 24.968 64.3376 24.52C63.2896 24.064 62.3976 23.44 61.6616 22.648C60.9336 21.848 60.3736 20.904 59.9816 19.816C59.5896 18.72 59.3936 17.532 59.3936 16.252C59.3936 14.948 59.6056 13.752 60.0296 12.664C60.4536 11.568 61.0496 10.624 61.8176 9.832C62.5856 9.04 63.5056 8.424 64.5776 7.984C65.6496 7.544 66.8296 7.324 68.1176 7.324C68.7736 7.324 69.3896 7.384 69.9656 7.504C70.5496 7.616 71.0936 7.776 71.5976 7.984C72.1016 8.184 72.5656 8.428 72.9896 8.716C73.4136 9.004 73.7896 9.316 74.1176 9.652L72.7496 11.488C72.6616 11.6 72.5576 11.704 72.4376 11.8C72.3176 11.888 72.1496 11.932 71.9336 11.932C71.7896 11.932 71.6536 11.9 71.5256 11.836C71.3976 11.772 71.2616 11.696 71.1176 11.608C70.9736 11.512 70.8136 11.412 70.6376 11.308C70.4696 11.196 70.2656 11.096 70.0256 11.008C69.7936 10.912 69.5176 10.832 69.1976 10.768C68.8856 10.704 68.5176 10.672 68.0936 10.672C67.4216 10.672 66.8056 10.796 66.2456 11.044C65.6936 11.292 65.2136 11.656 64.8056 12.136C64.4056 12.608 64.0936 13.192 63.8696 13.888C63.6536 14.576 63.5456 15.364 63.5456 16.252C63.5456 17.148 63.6656 17.944 63.9056 18.64C64.1536 19.336 64.4856 19.924 64.9016 20.404C65.3256 20.876 65.8176 21.236 66.3776 21.484C66.9376 21.732 67.5376 21.856 68.1776 21.856C68.5456 21.856 68.8816 21.84 69.1856 21.808C69.4896 21.768 69.7736 21.708 70.0376 21.628C70.3016 21.54 70.5496 21.428 70.7816 21.292C71.0136 21.148 71.2496 20.968 71.4896 20.752C71.5856 20.672 71.6896 20.608 71.8016 20.56C71.9136 20.504 72.0296 20.476 72.1496 20.476ZM79.7601 7.036V25H76.0401V7.036H79.7601ZM86.4585 12.556V25H82.7385V12.556H86.4585ZM86.8425 9.148C86.8425 9.444 86.7825 9.724 86.6625 9.988C86.5425 10.244 86.3785 10.472 86.1705 10.672C85.9625 10.864 85.7185 11.02 85.4385 11.14C85.1665 11.252 84.8745 11.308 84.5625 11.308C84.2585 11.308 83.9745 11.252 83.7105 11.14C83.4465 11.02 83.2105 10.864 83.0025 10.672C82.8025 10.472 82.6425 10.244 82.5225 9.988C82.4105 9.724 82.3545 9.444 82.3545 9.148C82.3545 8.844 82.4105 8.56 82.5225 8.296C82.6425 8.032 82.8025 7.8 83.0025 7.6C83.2105 7.4 83.4465 7.244 83.7105 7.132C83.9745 7.02 84.2585 6.964 84.5625 6.964C84.8745 6.964 85.1665 7.02 85.4385 7.132C85.7185 7.244 85.9625 7.4 86.1705 7.6C86.3785 7.8 86.5425 8.032 86.6625 8.296C86.7825 8.56 86.8425 8.844 86.8425 9.148ZM92.8649 13.9C93.1049 13.676 93.3529 13.468 93.6089 13.276C93.8649 13.084 94.1369 12.924 94.4249 12.796C94.7209 12.66 95.0369 12.556 95.3729 12.484C95.7169 12.404 96.0889 12.364 96.4889 12.364C97.1689 12.364 97.7689 12.484 98.2889 12.724C98.8169 12.956 99.2609 13.284 99.6209 13.708C99.9809 14.124 100.253 14.624 100.437 15.208C100.621 15.784 100.713 16.412 100.713 17.092V25H96.9929V17.092C96.9929 16.484 96.8529 16.012 96.5729 15.676C96.2929 15.332 95.8809 15.16 95.3369 15.16C94.9289 15.16 94.5449 15.248 94.1849 15.424C93.8329 15.592 93.4889 15.824 93.1529 16.12V25H89.4329V12.556H91.7369C92.2009 12.556 92.5049 12.764 92.6489 13.18L92.8649 13.9ZM107.304 12.556V25H103.584V12.556H107.304ZM107.688 9.148C107.688 9.444 107.628 9.724 107.508 9.988C107.388 10.244 107.224 10.472 107.016 10.672C106.808 10.864 106.564 11.02 106.284 11.14C106.012 11.252 105.72 11.308 105.408 11.308C105.104 11.308 104.82 11.252 104.556 11.14C104.292 11.02 104.056 10.864 103.848 10.672C103.648 10.472 103.488 10.244 103.368 9.988C103.256 9.724 103.2 9.444 103.2 9.148C103.2 8.844 103.256 8.56 103.368 8.296C103.488 8.032 103.648 7.8 103.848 7.6C104.056 7.4 104.292 7.244 104.556 7.132C104.82 7.02 105.104 6.964 105.408 6.964C105.72 6.964 106.012 7.02 106.284 7.132C106.564 7.244 106.808 7.4 107.016 7.6C107.224 7.8 107.388 8.032 107.508 8.296C107.628 8.56 107.688 8.844 107.688 9.148ZM119.423 15.508C119.311 15.644 119.203 15.752 119.099 15.832C118.995 15.912 118.847 15.952 118.655 15.952C118.471 15.952 118.303 15.908 118.151 15.82C118.007 15.732 117.843 15.636 117.659 15.532C117.475 15.42 117.259 15.32 117.011 15.232C116.763 15.144 116.455 15.1 116.087 15.1C115.631 15.1 115.235 15.184 114.899 15.352C114.571 15.52 114.299 15.76 114.083 16.072C113.867 16.384 113.707 16.768 113.603 17.224C113.499 17.672 113.447 18.18 113.447 18.748C113.447 19.94 113.675 20.856 114.131 21.496C114.595 22.136 115.231 22.456 116.039 22.456C116.471 22.456 116.811 22.404 117.059 22.3C117.315 22.188 117.531 22.068 117.707 21.94C117.883 21.804 118.043 21.68 118.187 21.568C118.339 21.456 118.527 21.4 118.751 21.4C119.047 21.4 119.271 21.508 119.423 21.724L120.503 23.056C120.119 23.496 119.715 23.856 119.291 24.136C118.867 24.408 118.431 24.624 117.983 24.784C117.543 24.936 117.099 25.04 116.651 25.096C116.203 25.16 115.767 25.192 115.343 25.192C114.583 25.192 113.855 25.048 113.159 24.76C112.471 24.472 111.863 24.056 111.335 23.512C110.815 22.96 110.399 22.284 110.087 21.484C109.783 20.684 109.631 19.772 109.631 18.748C109.631 17.852 109.763 17.016 110.027 16.24C110.299 15.456 110.695 14.78 111.215 14.212C111.743 13.636 112.391 13.184 113.159 12.856C113.935 12.528 114.831 12.364 115.847 12.364C116.823 12.364 117.679 12.52 118.415 12.832C119.151 13.144 119.815 13.6 120.407 14.2L119.423 15.508Z" fill="#0655A3"/>
<path d="M4.242 38.5782C4.62933 38.5782 4.97 38.5269 5.264 38.4242C5.56267 38.3215 5.81233 38.1792 6.013 37.9972C6.21833 37.8105 6.37233 37.5889 6.475 37.3322C6.57767 37.0755 6.629 36.7932 6.629 36.4852C6.629 35.8459 6.43067 35.3465 6.034 34.9872C5.642 34.6279 5.04467 34.4482 4.242 34.4482H2.632V38.5782H4.242ZM4.242 33.3772C4.87667 33.3772 5.42733 33.4519 5.894 33.6012C6.36533 33.7459 6.755 33.9535 7.063 34.2242C7.371 34.4949 7.59967 34.8215 7.749 35.2042C7.903 35.5869 7.98 36.0139 7.98 36.4852C7.98 36.9519 7.89833 37.3789 7.735 37.7662C7.57167 38.1535 7.33133 38.4872 7.014 38.7672C6.70133 39.0472 6.31167 39.2665 5.845 39.4252C5.383 39.5792 4.84867 39.6562 4.242 39.6562H2.632V43.4082H1.281V33.3772H4.242ZM12.3951 36.2052C12.9131 36.2052 13.3797 36.2915 13.7951 36.4642C14.2104 36.6369 14.5651 36.8819 14.8591 37.1992C15.1531 37.5165 15.3771 37.9015 15.5311 38.3542C15.6897 38.8022 15.7691 39.3039 15.7691 39.8592C15.7691 40.4192 15.6897 40.9232 15.5311 41.3712C15.3771 41.8192 15.1531 42.2019 14.8591 42.5192C14.5651 42.8365 14.2104 43.0815 13.7951 43.2542C13.3797 43.4222 12.9131 43.5062 12.3951 43.5062C11.8724 43.5062 11.4011 43.4222 10.9811 43.2542C10.5657 43.0815 10.2111 42.8365 9.91706 42.5192C9.62306 42.2019 9.39673 41.8192 9.23806 41.3712C9.08406 40.9232 9.00706 40.4192 9.00706 39.8592C9.00706 39.3039 9.08406 38.8022 9.23806 38.3542C9.39673 37.9015 9.62306 37.5165 9.91706 37.1992C10.2111 36.8819 10.5657 36.6369 10.9811 36.4642C11.4011 36.2915 11.8724 36.2052 12.3951 36.2052ZM12.3951 42.5332C13.0951 42.5332 13.6177 42.2999 13.9631 41.8332C14.3084 41.3619 14.4811 40.7062 14.4811 39.8662C14.4811 39.0215 14.3084 38.3635 13.9631 37.8922C13.6177 37.4209 13.0951 37.1852 12.3951 37.1852C12.0404 37.1852 11.7301 37.2459 11.4641 37.3672C11.2027 37.4885 10.9834 37.6635 10.8061 37.8922C10.6334 38.1209 10.5027 38.4032 10.4141 38.7392C10.3301 39.0705 10.2881 39.4462 10.2881 39.8662C10.2881 40.7062 10.4607 41.3619 10.8061 41.8332C11.1561 42.2999 11.6857 42.5332 12.3951 42.5332ZM27.399 36.3172L25.103 43.4082H24.116C23.9947 43.4082 23.9107 43.3289 23.864 43.1702L22.296 38.3612C22.2587 38.2539 22.2284 38.1465 22.205 38.0392C22.1817 37.9272 22.1584 37.8175 22.135 37.7102C22.1117 37.8175 22.0884 37.9272 22.065 38.0392C22.0417 38.1465 22.0114 38.2562 21.974 38.3682L20.378 43.1702C20.336 43.3289 20.2427 43.4082 20.098 43.4082H19.16L16.864 36.3172H17.844C17.942 36.3172 18.0237 36.3429 18.089 36.3942C18.159 36.4455 18.2057 36.5062 18.229 36.5762L19.587 41.1402C19.6664 41.4762 19.7294 41.7935 19.776 42.0922C19.818 41.9382 19.86 41.7819 19.902 41.6232C19.9487 41.4645 19.9977 41.3035 20.049 41.1402L21.547 36.5482C21.5704 36.4782 21.61 36.4199 21.666 36.3732C21.7267 36.3265 21.799 36.3032 21.883 36.3032H22.429C22.5224 36.3032 22.5994 36.3265 22.66 36.3732C22.7207 36.4199 22.7627 36.4782 22.786 36.5482L24.249 41.1402C24.3004 41.3035 24.347 41.4645 24.389 41.6232C24.431 41.7819 24.4707 41.9382 24.508 42.0922C24.5314 41.9382 24.5594 41.7842 24.592 41.6302C24.6294 41.4715 24.669 41.3082 24.711 41.1402L26.097 36.5762C26.1204 36.5015 26.1647 36.4409 26.23 36.3942C26.2954 36.3429 26.3724 36.3172 26.461 36.3172H27.399ZM33.6425 39.0892C33.6425 38.7999 33.6005 38.5362 33.5165 38.2982C33.4372 38.0555 33.3182 37.8479 33.1595 37.6752C33.0055 37.4979 32.8165 37.3625 32.5925 37.2692C32.3685 37.1712 32.1142 37.1222 31.8295 37.1222C31.2322 37.1222 30.7585 37.2972 30.4085 37.6472C30.0632 37.9925 29.8485 38.4732 29.7645 39.0892H33.6425ZM34.6505 42.4142C34.4965 42.6009 34.3122 42.7642 34.0975 42.9042C33.8829 43.0395 33.6519 43.1515 33.4045 43.2402C33.1619 43.3289 32.9099 43.3942 32.6485 43.4362C32.3872 43.4829 32.1282 43.5062 31.8715 43.5062C31.3815 43.5062 30.9289 43.4245 30.5135 43.2612C30.1029 43.0932 29.7459 42.8505 29.4425 42.5332C29.1439 42.2112 28.9105 41.8145 28.7425 41.3432C28.5745 40.8719 28.4905 40.3305 28.4905 39.7192C28.4905 39.2245 28.5652 38.7625 28.7145 38.3332C28.8685 37.9039 29.0879 37.5329 29.3725 37.2202C29.6572 36.9029 30.0049 36.6555 30.4155 36.4782C30.8262 36.2962 31.2882 36.2052 31.8015 36.2052C32.2262 36.2052 32.6182 36.2775 32.9775 36.4222C33.3415 36.5622 33.6542 36.7675 33.9155 37.0382C34.1815 37.3042 34.3892 37.6355 34.5385 38.0322C34.6879 38.4242 34.7625 38.8722 34.7625 39.3762C34.7625 39.5722 34.7415 39.7029 34.6995 39.7682C34.6575 39.8335 34.5782 39.8662 34.4615 39.8662H29.7225C29.7365 40.3142 29.7972 40.7039 29.9045 41.0352C30.0165 41.3665 30.1705 41.6442 30.3665 41.8682C30.5625 42.0875 30.7959 42.2532 31.0665 42.3652C31.3372 42.4725 31.6405 42.5262 31.9765 42.5262C32.2892 42.5262 32.5575 42.4912 32.7815 42.4212C33.0102 42.3465 33.2062 42.2672 33.3695 42.1832C33.5329 42.0992 33.6682 42.0222 33.7755 41.9522C33.8875 41.8775 33.9832 41.8402 34.0625 41.8402C34.1652 41.8402 34.2445 41.8799 34.3005 41.9592L34.6505 42.4142ZM37.856 37.7382C38.08 37.2529 38.3553 36.8749 38.682 36.6042C39.0087 36.3289 39.4077 36.1912 39.879 36.1912C40.0283 36.1912 40.1707 36.2075 40.306 36.2402C40.446 36.2729 40.5697 36.3242 40.677 36.3942L40.586 37.3252C40.558 37.4419 40.488 37.5002 40.376 37.5002C40.3107 37.5002 40.215 37.4862 40.089 37.4582C39.963 37.4302 39.8207 37.4162 39.662 37.4162C39.438 37.4162 39.2373 37.4489 39.06 37.5142C38.8873 37.5795 38.731 37.6775 38.591 37.8082C38.4557 37.9342 38.332 38.0929 38.22 38.2842C38.1127 38.4709 38.0147 38.6855 37.926 38.9282V43.4082H36.673V36.3172H37.387C37.5223 36.3172 37.6157 36.3429 37.667 36.3942C37.7183 36.4455 37.7533 36.5342 37.772 36.6602L37.856 37.7382ZM46.6115 39.0892C46.6115 38.7999 46.5695 38.5362 46.4855 38.2982C46.4062 38.0555 46.2872 37.8479 46.1285 37.6752C45.9745 37.4979 45.7855 37.3625 45.5615 37.2692C45.3375 37.1712 45.0832 37.1222 44.7985 37.1222C44.2012 37.1222 43.7275 37.2972 43.3775 37.6472C43.0322 37.9925 42.8175 38.4732 42.7335 39.0892H46.6115ZM47.6195 42.4142C47.4655 42.6009 47.2812 42.7642 47.0665 42.9042C46.8519 43.0395 46.6209 43.1515 46.3735 43.2402C46.1309 43.3289 45.8789 43.3942 45.6175 43.4362C45.3562 43.4829 45.0972 43.5062 44.8405 43.5062C44.3505 43.5062 43.8979 43.4245 43.4825 43.2612C43.0719 43.0932 42.7149 42.8505 42.4115 42.5332C42.1129 42.2112 41.8795 41.8145 41.7115 41.3432C41.5435 40.8719 41.4595 40.3305 41.4595 39.7192C41.4595 39.2245 41.5342 38.7625 41.6835 38.3332C41.8375 37.9039 42.0569 37.5329 42.3415 37.2202C42.6262 36.9029 42.9739 36.6555 43.3845 36.4782C43.7952 36.2962 44.2572 36.2052 44.7705 36.2052C45.1952 36.2052 45.5872 36.2775 45.9465 36.4222C46.3105 36.5622 46.6232 36.7675 46.8845 37.0382C47.1505 37.3042 47.3582 37.6355 47.5075 38.0322C47.6569 38.4242 47.7315 38.8722 47.7315 39.3762C47.7315 39.5722 47.7105 39.7029 47.6685 39.7682C47.6265 39.8335 47.5472 39.8662 47.4305 39.8662H42.6915C42.7055 40.3142 42.7662 40.7039 42.8735 41.0352C42.9855 41.3665 43.1395 41.6442 43.3355 41.8682C43.5315 42.0875 43.7649 42.2532 44.0355 42.3652C44.3062 42.4725 44.6095 42.5262 44.9455 42.5262C45.2582 42.5262 45.5265 42.4912 45.7505 42.4212C45.9792 42.3465 46.1752 42.2672 46.3385 42.1832C46.5019 42.0992 46.6372 42.0222 46.7445 41.9522C46.8565 41.8775 46.9522 41.8402 47.0315 41.8402C47.1342 41.8402 47.2135 41.8799 47.2695 41.9592L47.6195 42.4142ZM54.262 38.0042C54.0287 37.6915 53.7767 37.4745 53.506 37.3532C53.2353 37.2272 52.932 37.1642 52.596 37.1642C51.938 37.1642 51.4317 37.3999 51.077 37.8712C50.7223 38.3425 50.545 39.0145 50.545 39.8872C50.545 40.3492 50.5847 40.7459 50.664 41.0772C50.7433 41.4039 50.86 41.6745 51.014 41.8892C51.168 42.0992 51.357 42.2532 51.581 42.3512C51.805 42.4492 52.0593 42.4982 52.344 42.4982C52.7547 42.4982 53.1117 42.4049 53.415 42.2182C53.723 42.0315 54.0053 41.7679 54.262 41.4272V38.0042ZM55.508 33.0972V43.4082H54.766C54.5887 43.4082 54.4767 43.3219 54.43 43.1492L54.318 42.2882C54.0147 42.6522 53.6693 42.9462 53.282 43.1702C52.8947 43.3942 52.4467 43.5062 51.938 43.5062C51.532 43.5062 51.1633 43.4292 50.832 43.2752C50.5007 43.1165 50.2183 42.8855 49.985 42.5822C49.7517 42.2789 49.572 41.9009 49.446 41.4482C49.32 40.9955 49.257 40.4752 49.257 39.8872C49.257 39.3645 49.327 38.8792 49.467 38.4312C49.607 37.9785 49.8077 37.5865 50.069 37.2552C50.3303 36.9239 50.65 36.6649 51.028 36.4782C51.4107 36.2869 51.84 36.1912 52.316 36.1912C52.75 36.1912 53.121 36.2659 53.429 36.4152C53.7417 36.5599 54.0193 36.7629 54.262 37.0242V33.0972H55.508ZM65.633 42.3302C66.0204 42.3302 66.354 42.2859 66.634 42.1972C66.914 42.1085 67.1427 41.9849 67.32 41.8262C67.502 41.6629 67.635 41.4715 67.719 41.2522C67.803 41.0282 67.845 40.7832 67.845 40.5172C67.845 39.9992 67.6607 39.5909 67.292 39.2922C66.9234 38.9889 66.3704 38.8372 65.633 38.8372H63.463V42.3302H65.633ZM63.463 34.4482V37.8712H65.255C65.6377 37.8712 65.969 37.8292 66.249 37.7452C66.5337 37.6612 66.767 37.5445 66.949 37.3952C67.1357 37.2459 67.2734 37.0662 67.362 36.8562C67.4507 36.6415 67.495 36.4082 67.495 36.1562C67.495 35.5635 67.3177 35.1319 66.963 34.8612C66.6084 34.5859 66.0577 34.4482 65.311 34.4482H63.463ZM65.311 33.3772C65.927 33.3772 66.4567 33.4379 66.9 33.5592C67.348 33.6805 67.7144 33.8532 67.999 34.0772C68.2884 34.3012 68.5007 34.5765 68.636 34.9032C68.7714 35.2252 68.839 35.5892 68.839 35.9952C68.839 36.2425 68.7994 36.4805 68.72 36.7092C68.6454 36.9332 68.531 37.1432 68.377 37.3392C68.223 37.5352 68.027 37.7125 67.789 37.8712C67.5557 38.0252 67.2804 38.1512 66.963 38.2492C67.7004 38.3892 68.2534 38.6529 68.622 39.0402C68.9954 39.4229 69.182 39.9269 69.182 40.5522C69.182 40.9769 69.1027 41.3642 68.944 41.7142C68.79 42.0642 68.5614 42.3652 68.258 42.6172C67.9594 42.8692 67.5907 43.0652 67.152 43.2052C66.7134 43.3405 66.214 43.4082 65.654 43.4082H62.112V33.3772H65.311ZM77.1891 36.3172L73.2341 45.5012C73.1921 45.5945 73.1384 45.6692 73.0731 45.7252C73.0124 45.7812 72.9167 45.8092 72.7861 45.8092H71.8621L73.1571 42.9952L70.2311 36.3172H71.3091C71.4164 36.3172 71.5004 36.3452 71.5611 36.4012C71.6264 36.4525 71.6707 36.5109 71.6941 36.5762L73.5911 41.0422C73.6657 41.2382 73.7287 41.4435 73.7801 41.6582C73.8454 41.4389 73.9154 41.2312 73.9901 41.0352L75.8311 36.5762C75.8591 36.5015 75.9057 36.4409 75.9711 36.3942C76.0411 36.3429 76.1181 36.3172 76.2021 36.3172H77.1891Z" fill="#101828"/>
<path d="M93.0339 30.4984C93.2614 30.9731 93.3468 31.491 93.3468 32.0232C93.3468 34.3824 93.3325 36.7415 93.361 39.1007C93.361 39.6329 93.2899 39.8631 92.6641 39.8487C90.1326 39.7912 87.601 39.82 85.0695 39.82C84.7281 39.82 84.3726 39.82 84.0739 39.6186L84.0028 39.6329C84.2873 41.6181 85.553 42.7257 87.5299 42.7401C88.0561 42.7401 88.5681 42.7689 89.0943 42.7401C89.5352 42.7114 89.7201 42.8552 89.6917 43.3299C89.6632 43.9341 89.6632 44.5526 89.6917 45.1712C89.7486 47.07 91.1423 48.4366 92.9485 48.4078C94.7121 48.3791 96.049 46.9837 96.0916 45.128C96.1059 44.3656 95.8356 43.3731 96.2054 42.9271C96.6463 42.4093 97.6703 42.7977 98.4383 42.7545C99.8605 42.6826 100.941 42.064 101.51 40.7262C102.477 38.4678 100.842 36.123 98.3103 36.123C97.6134 36.123 96.7316 36.3675 96.2907 36.0223C95.7503 35.6195 96.1343 34.6701 96.1059 33.9652C96.049 31.9225 95.1672 30.8437 93.1192 30.4121C93.105 30.4409 93.0908 30.4696 93.0339 30.4984Z" fill="#6FCCEA"/>
<path d="M83.9889 39.6187L84.06 39.6043C83.7044 37.763 85.5249 36.0224 87.26 36.0943C87.8857 36.1231 88.5257 36.08 89.1657 36.1087C89.5355 36.1231 89.5924 36.008 89.6493 35.6196C89.7631 34.7853 89.6208 33.951 89.7346 33.1166C89.9622 31.5055 91.6262 30.1821 93.0484 30.4985C93.091 30.4842 93.1195 30.441 93.1195 30.3835C92.9773 30.1677 92.8493 29.9375 92.6786 29.7505C91.8679 28.7867 90.8724 28.2113 89.5782 28.4703C87.6582 28.8586 86.8191 29.9807 86.8049 32.0665C86.8049 33.4187 86.9613 33.3036 85.6102 33.2605C84.4724 33.2317 83.5338 33.5194 82.78 34.4257C81.372 36.08 81.9267 38.6693 83.9889 39.6187Z" fill="#0655A3"/>
<path opacity="0.83" d="M92.65 39.8345C93.29 39.8489 93.3611 39.6188 93.3468 39.0865C93.3326 36.7274 93.3468 34.3682 93.3326 32.0091C93.3326 31.4768 93.2473 30.9733 93.0197 30.4842C91.5975 30.1534 89.9193 31.4912 89.706 33.1023C89.5922 33.9367 89.7486 34.771 89.6206 35.6053C89.5638 35.9793 89.5069 36.1088 89.1371 36.0944C88.5113 36.0657 87.8713 36.1088 87.2313 36.08C85.4962 36.0081 83.6758 37.7487 84.0313 39.59C84.3442 39.7914 84.6856 39.7914 85.0269 39.7914C87.5869 39.8202 90.1184 39.7914 92.65 39.8345Z" fill="#0655A3"/>
<path d="M107.754 41.7759C107.669 42.4808 107.057 43.0131 106.332 43.0131C105.535 43.0131 104.938 42.3945 104.938 41.6033C104.938 41.5026 104.952 41.4019 104.967 41.3012L105.976 35.3602C106.133 34.3964 106.858 33.7778 107.825 33.7778C108.721 33.7778 109.39 34.2957 109.631 35.13L110.556 38.2804L111.452 35.13C111.708 34.2957 112.391 33.7778 113.272 33.7778C114.239 33.7778 114.965 34.3964 115.135 35.3602L116.131 41.3012C116.159 41.4019 116.159 41.5026 116.159 41.6033C116.159 42.4089 115.548 43.0131 114.751 43.0131C114.04 43.0131 113.429 42.4808 113.343 41.7759L112.917 38.1941L111.779 41.9486C111.551 42.711 111.196 43.0418 110.599 43.0418C109.902 43.0418 109.575 42.7541 109.333 41.9486L108.181 38.1941L107.754 41.7759Z" fill="#6FCCEA"/>
<path d="M121.735 40.3951C122.474 40.3951 123.086 40.9561 123.086 41.661C123.086 42.3515 122.488 42.8981 121.777 42.8981H118.449C117.695 42.8981 117.027 42.1933 117.027 41.4308V35.3603C117.027 34.526 117.639 33.8931 118.463 33.8931H121.877C122.531 33.8931 123.057 34.4541 123.057 35.1446C123.057 35.8494 122.503 36.4105 121.834 36.4105H119.857V37.1872H121.479C122.204 37.1872 122.787 37.7339 122.787 38.4244C122.787 39.0861 122.218 39.6183 121.479 39.6183H119.886V40.4095H121.735V40.3951Z" fill="#6FCCEA"/>
<path d="M126.783 41.5891C126.783 42.3803 126.172 43.0132 125.375 43.0132C124.579 43.0132 123.953 42.3659 123.953 41.5459V35.4035C123.953 34.4685 124.508 33.8931 125.404 33.8931H128.106C130.097 33.8931 131.349 35.0583 131.349 36.8852C131.349 37.3023 131.278 37.7051 131.107 38.0791C130.879 38.5682 130.851 38.6258 130.168 39.1724C130.126 39.2155 130.069 39.2443 129.998 39.3019L131.05 40.7116C131.263 40.9705 131.363 41.287 131.363 41.6179C131.363 42.3803 130.68 43.0564 129.912 43.0564C129.486 43.0564 128.959 42.7255 128.632 42.2508L126.783 39.5032V41.5891ZM126.812 37.4606H127.992C128.262 37.4606 128.504 37.216 128.504 36.8852C128.504 36.6118 128.291 36.3961 128.035 36.3961H126.812V37.4606Z" fill="#6FCCEA"/>
<path d="M134.52 42.0205C134.279 42.6535 133.795 43.0275 133.184 43.0275C132.387 43.0275 131.733 42.4089 131.733 41.6753C131.733 41.4307 131.776 41.1574 131.889 40.8841L134.023 35.3746C134.392 34.382 135.189 33.8066 136.156 33.8066C137.137 33.8066 137.905 34.382 138.304 35.3746L140.437 40.8841C140.536 41.1574 140.593 41.4163 140.593 41.6753C140.593 42.4089 139.939 43.0275 139.143 43.0275C138.517 43.0275 138.019 42.6535 137.806 42.0205L137.664 41.589H134.663L134.52 42.0205ZM135.502 39.1004H136.839L136.184 36.698L135.502 39.1004Z" fill="#6FCCEA"/>
<path d="M142.57 33.8931H144.519C145.884 33.8931 146.737 34.0801 147.548 34.5692C148.842 35.3603 149.653 36.7989 149.653 38.3956C149.653 41.0137 147.69 42.9125 144.959 42.9125H142.556C141.759 42.9125 141.134 42.2652 141.134 41.4452V35.346C141.134 34.5404 141.759 33.8931 142.57 33.8931ZM144.007 40.4095H144.675C145.955 40.4095 146.823 39.6039 146.823 38.3956C146.823 37.2016 145.927 36.3961 144.575 36.3961H144.007V40.4095Z" fill="#0655A3"/>
<path d="M155.242 33.7637C157.83 33.7637 159.992 35.8783 159.992 38.3957C159.992 40.9131 157.83 43.0133 155.242 43.0133C152.667 43.0133 150.491 40.8987 150.491 38.3957C150.506 35.8783 152.667 33.7637 155.242 33.7637ZM153.336 38.3957C153.336 39.5896 154.161 40.5103 155.242 40.5103C156.323 40.5103 157.162 39.5896 157.162 38.3957C157.162 37.2017 156.337 36.2667 155.242 36.2667C154.175 36.2667 153.336 37.2017 153.336 38.3957Z" fill="#0655A3"/>
<path d="M167.43 39.9635C168.127 39.9635 168.668 40.4813 168.668 41.1286C168.668 42.1931 167.402 42.9843 165.71 42.9843C165.155 42.9843 164.572 42.9124 164.088 42.7542C162.211 42.1788 160.817 40.3087 160.817 38.3667C160.817 35.8493 162.993 33.8066 165.71 33.8066C167.459 33.8066 168.654 34.5115 168.654 35.5185C168.654 36.2089 168.156 36.7124 167.502 36.7124C167.26 36.7124 166.99 36.6693 166.876 36.6405L166.222 36.4247C166.065 36.3816 165.838 36.3528 165.582 36.3528C164.97 36.3528 164.572 36.4966 164.216 36.885C163.861 37.2734 163.633 37.8345 163.633 38.3523C163.633 39.5031 164.43 40.395 165.482 40.395C165.71 40.395 165.966 40.3519 166.193 40.2512L166.847 40.0354C167.032 39.9922 167.231 39.9635 167.43 39.9635Z" fill="#0655A3"/>
</g>
<defs>
<clipPath id="clip0_149_1853">
<rect width="262" height="48" fill="white"/>
</clipPath>
</defs>
</svg>
